/* XPM */
static char *B1722467257[] = {
/* columns rows colors chars-per-pixel */
"8 8 2 1 ",
"  c None",
". c white",
/* pixels */
".....   ",
"..  ..  ",
"..  ..  ",
".....   ",
"..  ..  ",
"..  ..  ",
".....   ",
"        "
};
