/* XPM */
static char *G1722467258[] = {
/* columns rows colors chars-per-pixel */
"8 8 2 1 ",
"  c None",
". c white",
/* pixels */
" .....  ",
"..      ",
"..      ",
"..      ",
"..  ..  ",
"..  ..  ",
" .....  ",
"        "
};
