/* XPM */
static char *Y1722467261[] = {
/* columns rows colors chars-per-pixel */
"8 8 2 1 ",
"  c None",
". c white",
/* pixels */
"..  ..  ",
"..  ..  ",
"..  ..  ",
" ....   ",
"  ..    ",
"  ..    ",
"  ..    ",
"        "
};
