/* XPM */
static char *death_2__su__ru__klenen_1722517668[] = {
/* columns rows colors chars-per-pixel */
"128 128 3 1 ",
"  c #807C77",
". c #5B9B9B",
"X c white",
/* pixels */
"................................................................................................................................",
"................................................................................................................................",
"................................................................................................................................",
"................................................................................................................................",
"................................................................................................................................",
"................................................................................................................................",
"................................................................................................................................",
"................................................................................................................................",
"................................................................................................................................",
"................................................................................................................................",
"................................................................................................................................",
"................................................................................................................................",
"................................................................................................................................",
"................................................................................................................................",
"................................................................................................................................",
"................................................................................................................................",
"................................................................................................................................",
"................................................................................................................................",
"................................................................................................................................",
"................................................................................................................................",
"................................................................................................................................",
"................................................................................................................................",
"................................................................................................................................",
"................................................................................................................................",
"................................................................................................................................",
"................................................................................................................................",
"................................................................................................................................",
"................................................................................................................................",
"................................................................................................................................",
"................................................................................................................................",
"................................................................................................................................",
"................................................................................................................................",
"................................................................................................................................",
"................................................................................................................................",
"................................................................................................................................",
"................................................................................................................................",
"................................................................................................................................",
"................................................................................................................................",
"................................................................................................................................",
"................................................................................................................................",
"................................................................................................................................",
"................................................................................................................................",
"................................................................................................................................",
"................................................................................................................................",
"................................................................................................................................",
"................................................................................................................................",
"................................................................................................................................",
"................................................................................................................................",
"................................................................................................................................",
"................................................................................................................................",
"................................................................................................................................",
"................................................................................................................................",
"................................................................................................................................",
"................................................................................................................................",
"................................................................................................................................",
"................................................................................................................................",
"................................................................................................................................",
"................................................................................................................................",
"................................................................................................................................",
"................................................................................................................................",
"....................................................XXXXXXXXXXXX................................................................",
"....................................................XXXXXXXXXXXX................................................................",
"....................................................XXXXXXXXXXXX................................................................",
"....................................................XXXXXXXXXXXX................................................................",
"..................................................XXXXXXXXXXXXXX................................................................",
"..................................................XXXXXXXXXXXXXX................................................................",
"................................................XXXXXXXXXXXXXXXXXX..............................................................",
"................................................XXXXXXXXXXXXXXXXXX..............................................................",
"................................................XXXXXXXXXXXXXXXXXX..............................................................",
"................................................XXXXXXXXXXXXXXXXXX..............................................................",
"................................................XXXXXXXXXXXXXXXXXX..............................................................",
"................................................XXXXXXXXXXXXXXXXXX..............................................................",
"................................................XXXXXXXXXXXXXXXXXX..............................................................",
"................................................XXXXXXXXXXXXXXXXXX..............................................................",
"................................................XXXXXXXXXXXXXXXXXX..............................................................",
"................................................XXXXXXXXXXXXXXXXXX..............................................................",
"................................................XXXXXXXXXXXXXXXXXX..............................................................",
"................................................XXXXXXXXXXXXXXXXXX..............................................................",
"................................................XXXXXXXXXXXXXXXXXX..............................................................",
"................................................XXXXXXXXXXXXXXXXXX..............................................................",
"................................................XXXXXXXXXXXXXXXXXX..............................................................",
"................................................XXXXXXXXXXXXXXXXXX..............................................................",
"................................................XXXXXXXXXXXXXXXXXX..............................................................",
"................................................XXXXXXXXXXXXXXXXXX..............................................................",
"................................................XXXXXXXXXXXXXXXXXX..............................................................",
"................................................XXXXXXXXXXXXXXXXXX..............................................................",
"................................................XXXXXXXX..XXXXXXXX..............................................................",
"................................................XXXXXXXX..XXXXXXXX..............................................................",
"................................................XXXXXX....XXXXXX................................................................",
"................................................XXXXXX....XXXXXX................................................................",
"................................................XXXXXX......XXXX................................................................",
"................................................XXXXXX......XXXX................................................................",
"................................................XXXX........XXXX................................................................",
"................................................XXXX........XXXX................................................................",
"................................................XX............XX................................................................",
"................................................XX............XX................................................................",
"................................................XX............XX................................................................",
"................................................XX............XX................................................................",
"................................................XX............XX................................................................",
"................................................XX............XX................................................................",
"................................................XX............XX................................................................",
"................................................XX............XX................................................................",
"................................................XX............XX................................................................",
"................................................XX............XX................................................................",
"................................................XX............XX................................................................",
"................................................XX............XX................................................................",
"................................................XX............XX................................................................",
"................................................XX............XX................................................................",
"................................................XX............XX................................................................",
"................................................XX............XX................................................................",
"................................................XX..............XX..............................................................",
"................................................XX..............XX..............................................................",
"................................................XX..............XX..............................................................",
"................................................XX..............XX..............................................................",
"................................................XX..............XX..............................................................",
"................................................XX..............XX..............................................................",
"................................................XX..............XX..............................................................",
"................................................XX..............XX..............................................................",
"................................................XX..............XX..............................................................",
"................................................XX..............XX..............................................................",
"................................................XX..............XX..............................................................",
"................................................XX..............XX..............................................................",
"................................................XX..............XX..............................................................",
"................................................XX..............XX..............................................................",
"................................................XX..............XX..............................................................",
"................................................XX..............XX..............................................................",
"                                                XX              XX..............................................................",
"                                                XX              XX.............................................................."
};
