/* XPM */
static char *death_3__su__ru__klenen_1722517668[] = {
/* columns rows colors chars-per-pixel */
"128 128 2 1 ",
"  c #AD0606",
". c #5B9B9B",
/* pixels */
"................................................................................................................................",
"................................................................................................................................",
"................................................................................................................................",
"................................................................................................................................",
"................................................................................................................................",
"................................................................................................................................",
"................................................................................................................................",
"................................................................................................................................",
"................................................................................................................................",
"................................................................................................................................",
"................................................................................................................................",
"................................................................................................................................",
"................................................................................................................................",
"................................................................................................................................",
"................................................................................................................................",
"................................................................................................................................",
"................................................................................................................................",
"................................................................................................................................",
"................................................................................................................................",
"................................................................................................................................",
"................................................................................................................................",
"................................................................................................................................",
"................................................................................................................................",
"................................................................................................................................",
"................................................................................................................................",
"................................................................................................................................",
"................................................................................................................................",
"................................................................................................................................",
"................................................................................................................................",
"................................................................................................................................",
"................................................................................................................................",
"................................................................................................................................",
"................................................................................................................................",
"................................................................................................................................",
"................................................................................................................................",
"................................................................................................................................",
"................................................................................................................................",
"................................................................................................................................",
"................................................................................................................................",
"................................................................................................................................",
"................................................................................................................................",
"................................................................................................................................",
"................................................................................................................................",
"................................................................................................................................",
"................................................................................................................................",
"................................................................................................................................",
"................................................................................................................................",
"................................................................................................................................",
"................................................................................................................................",
"................................................................................................................................",
"................................................................................................................................",
"................................................................................................................................",
"................................................................................................................................",
"................................................................................................................................",
"................................................................................................................................",
"................................................................................................................................",
"................................................................................................................................",
"................................................................................................................................",
"................................................................................................................................",
"................................................................................................................................",
"....................................................      ....  ................................................................",
"....................................................      ....  ................................................................",
"..................................................    ..    ....................................................................",
"..................................................    ..    ....................................................................",
"....................................................      ......................................................................",
"....................................................      ......................................................................",
"................................................  ..        ..  ................................................................",
"................................................  ..        ..  ................................................................",
"......................................................          ......  ........................................................",
"......................................................          ......  ........................................................",
"..................................................  ......      ....    ........................................................",
"..................................................  ......      ....    ........................................................",
"................................................  ..  ....      ..  ............................................................",
"................................................  ..  ....      ..  ............................................................",
"................................................  ..          ..      ..........................................................",
"................................................  ..          ..      ..........................................................",
"..................................................            ....    ..........................................................",
"..................................................            ....    ..........................................................",
"..................................................                ..............................................................",
"..................................................                ..............................................................",
"............................................  ......            ..    ..........................................................",
"............................................  ......            ..    ..........................................................",
"....................................................      ..  ....    ..........................................................",
"....................................................      ..  ....    ..........................................................",
"..............................................    ..      ..  ..      ..........................................................",
"..............................................    ..      ..  ..      ..........................................................",
"................................................              ..................................................................",
"................................................              ..................................................................",
"............................................  ....            ..................................................................",
"............................................  ....            ..................................................................",
"........................................    ....            ....................................................................",
"........................................    ....            ....................................................................",
"..................................................      ..  ....  ..............................................................",
"..................................................      ..  ....  ..............................................................",
"....................................................  ..........................................................................",
"....................................................  ..........................................................................",
"................................................  ............  ................................................................",
"................................................  ............  ................................................................",
"................................................  ............  ................................................................",
"................................................  ............  ................................................................",
"................................................  ............  ................................................................",
"................................................  ............  ................................................................",
"................................................  ............  ................................................................",
"................................................  ............  ................................................................",
"................................................  ............  ................................................................",
"................................................  ............  ................................................................",
"................................................  ............  ................................................................",
"................................................  ............  ................................................................",
"................................................  ............  ................................................................",
"................................................  ............  ................................................................",
"................................................  ..............  ..............................................................",
"................................................  ..............  ..............................................................",
"................................................  ..............  ..............................................................",
"................................................  ..............  ..............................................................",
"................................................  ..............  ..............................................................",
"................................................  ..............  ..............................................................",
"................................................  ..............  ..............................................................",
"................................................  ..............  ..............................................................",
"................................................  ..............  ..............................................................",
"................................................  ..............  ..............................................................",
"................................................  ..............  ..............................................................",
"................................................  ..............  ..............................................................",
"................................................  ..............  ..............................................................",
"................................................  ..............  ..............................................................",
"................................................  ..............  ..............................................................",
"................................................  ..............  ..............................................................",
"................................................  ..............  ..............................................................",
"................................................  ..............  .............................................................."
};
