/* XPM */
static char *_77fa70b350745bf922c2c71db2ee1e4Mt0qQ7iUEfYOdqgI[] = {
/* columns rows colors chars-per-pixel */
"48 48 2 1 ",
"  c None",
". c black",
/* pixels */
"                                                ",
"                                                ",
"                                                ",
"                                                ",
"                                                ",
"                                                ",
"                                                ",
"                                                ",
"                      ....                      ",
"                      ....                      ",
"                     ......                     ",
"                     ......                     ",
"                    ...  ...                    ",
"                    ...  ...                    ",
"                   ...    ...                   ",
"                   ...    ...                   ",
"                  ...      ...                  ",
"                  ...      ...                  ",
"                 ...        ...                 ",
"                 ...        ...                 ",
"                ...          ...                ",
"                ...          ...                ",
"               ...            ...               ",
"               ...            ...               ",
"              ...              ...              ",
"              ...              ...              ",
"             ...                ...             ",
"             ...                ...             ",
"            ...                  ...            ",
"            ...                  ...            ",
"           ...                    ...           ",
"           ...                    ...           ",
"          ...                      ...          ",
"          ...                      ...          ",
"         ...           ..           ...         ",
"         ...       ..........       ...         ",
"        ...     ................     ...        ",
"        ................................        ",
"         ...........        ...........         ",
"         .......                .......         ",
"                                                ",
"                                                ",
"                                                ",
"                                                ",
"                                                ",
"                                                ",
"                                                ",
"                                                "
};
