/* XPM */
static char *_77fa70b350745bf922c2c71db2ee1e4Mt0qQ7iUEfYOdqgI[] = {
/* columns rows colors chars-per-pixel */
"48 48 3 1 ",
"  c None",
". c black",
"c c white",
/* pixels */
"                                                ",
"                                                ",
"                                                ",
"                                                ",
"                                                ",
"                                                ",
"                                                ",
"                                                ",
"                      ....                      ",
"                      ....                      ",
"                     ......                     ",
"                     ......                     ",
"                    ...cc...                    ",
"                    ...cc...                    ",
"                   ...cccc...                   ",
"                   ...cccc...                   ",
"                  ...cccccc...                  ",
"                  ...cccccc...                  ",
"                 ...cccccccc...                 ",
"                 ...cccccccc...                 ",
"                ...cccccccccc...                ",
"                ...cccccccccc...                ",
"               ...cccccccccccc...               ",
"               ...cccccccccccc...               ",
"              ...cccccccccccccc...              ",
"              ...cccccccccccccc...              ",
"             ...cccccccccccccccc...             ",
"             ...cccccccccccccccc...             ",
"            ...cccccccccccccccccc...            ",
"            ...cccccccccccccccccc...            ",
"           ...cccccccccccccccccccc...           ",
"           ...cccccccccccccccccccc...           ",
"          ...cccccccccccccccccccccc...          ",
"          ...cccccccccccccccccccccc...          ",
"         ...ccccccccccc..ccccccccccc...         ",
"         ...ccccccc..........ccccccc...         ",
"        ...ccccc................ccccc...        ",
"        ................................        ",
"         ...........        ...........         ",
"         .......                .......         ",
"                                                ",
"                                                ",
"                                                ",
"                                                ",
"                                                ",
"                                                ",
"                                                ",
"                                                "
};
