/* XPM */
static char *num01721587796[] = {
/* columns rows colors chars-per-pixel */
"83 124 78 1 ",
"  c None",
". c #060608",
"X c #090708",
"o c #0A0A0A",
"O c #0E0E10",
"+ c #131314",
"@ c #161618",
"# c #17181A",
"$ c #1C1C1D",
"% c #1E1E20",
"& c #1F2022",
"* c #232424",
"= c #26272A",
"- c #27292C",
"; c #2A2A2C",
": c #2F2F32",
"> c #2F3032",
", c #313132",
"< c #373739",
"1 c #3A3A3C",
"2 c #3E3E40",
"3 c #444445",
"4 c #4D4D4D",
"5 c #4E4E51",
"6 c #514F52",
"7 c #4F5052",
"8 c #535354",
"9 c #565857",
"0 c #565658",
"q c #585659",
"w c #575959",
"e c #5B5B5D",
"r c #5E605F",
"t c #5E5E60",
"y c #605F63",
"u c #5F6062",
"i c #636466",
"p c #666867",
"a c #656569",
"s c #68676C",
"d c #67686A",
"f c #6B6B6C",
"g c #706E6F",
"h c #6E6F71",
"j c #716F70",
"k c #6F7073",
"l c #727374",
"z c #757678",
"x c #77787A",
"c c #797A7B",
"v c #848485",
"b c #8A8A8B",
"n c #8E8E90",
"m c #979797",
"M c #979799",
"N c #9A9A9B",
"B c #9F9FA1",
"V c #A5A5A6",
"C c #AAABAB",
"Z c #AEAEB0",
"A c #B4B4B5",
"S c #B6B7B9",
"D c #BABABB",
"F c #BFBEC1",
"G c #C0BEC1",
"H c #C0C0C2",
"J c #C7C7C9",
"K c #C8C6C9",
"L c #D6D6D6",
"P c #DADADA",
"I c #DFE1E0",
"U c #E2E3E3",
"Y c #E5E6E8",
"T c #E7E8EA",
"R c #ECECEC",
"E c #F5F5F5",
"W c #F7F6F8",
"Q c #FEFEFE",
/* pixels */
"                                                 .             X                   ",
"                         X                       X         X                       ",
"                      o    .                 .                 X                   ",
"                   o  o                      .  Xo.            X                   ",
"                   X XX  XoX     X    .   XX Xooo   X  X  X  X Xo..                ",
"                    XX  oX   .          X  o   XX O        XX+                     ",
"                    vREYPUTUIUUIUUIUUUUUPIIUTRRYCe998899qqq8qe*oO.o                ",
"                    NQWEQQQWQQQQQQQQQQQQQQQQQQQWDerjggjfggjjjl;                    ",
"                    mQQWQQQQQQQQQQQWQQQQWQQQQQWQA4riiiuiiiirpl, .oo.               ",
"                    mQQQQWQQQQQQQQQQQQQQQQQQWQWQA6pipppdpiprsj;   .                ",
"                    mQQQQWQWQQQQQQQQQQQQQQQQWQWQD6iiiiaaiiiifj;  . . .             ",
"                    mQQWQQQQQQQQQQQQQQQQQQQQWQQQD4riiruaiiiifj;   .                ",
"                    NQQWQWQQQQQQQQQQQQQQQQQQWQWQA6rpusuuauaash= .                  ",
"                    mQQQQQQQQQQQQQQQQQQQQQQQWQQQD4rpaasaauaash- ..                 ",
"                    NQQQQQQQQQQQQQQQQQQQQQQQWQWQA6rpuaauaaausk-....                ",
"                    NWQQQQQQQQQQQQQQQQQQQQQQQQQQA6ipauaatasasl-                    ",
"                    NQQEQWQQQQQQQQQQQQQQQQQQEQQQA8rpiudiuiatak-.   .               ",
"   .   .           omQQQQWQQQQQQQQQQQQQQQQQQQQEQD6eyiiuuaiauak=.              X    ",
"    .    .X         mQQEQQEQQQQQQQQQQQQQQQQQQEWQZqiituiuuuutts=....                ",
"    +  oX          ovRQQQQQQQQQQQQQQQQQQQQQWEQQEAr38w77908880a- o      .. X+X  X   ",
"    XovLYRRPPLLLPPPPx=*;*$+*=***************$&*>mLIIIIIIIIIITTB0984486446666*X     ",
"   X  BQERRQQQQQQQQQf    o@                Xo   nQQQQQQWQQQQQQCtpggfgjjjljjc1X     ",
"      BQRQQQQQQQQQQEfOOo                     XoObREQWQQQQQQWWQC7ippprrrirriz<     o",
" .  o NQQQEQQQQQWQQQpX   X.               . oX XnWQQQQQQQQQQQWZ7rrriipiippif;XXo  .",
"     XNQQWQQQQQQQQQQf  XX                   Xoo vWQQQWQQQQQQWQV9uiripippaiyz:  .   ",
"     XmQQWWQQQQQQQQQf                        .X nQQQQQQQQQQQWQV9iuiipipiaail,. . ..",
"      mQQQQQQQQQQQQQf   X                  .   XnQQQQQQQQQQQWQV9iiiiipipdiiz,.     ",
"      mQQQQQQQQQQQQQf                          XbQQQQQQQQQQQWQV8uiaiiiiisiaz:      ",
"      mQQQQQQQQQQQQQf                           bQQQQQQQQQQQQQV7iiaasyysiasl:. .   ",
"     .NQQQQQQQQQQQQQf                         . bQQQQQQQQQQQWQV8tiaiyysyisyl:    . ",
"     .NQQQQQQQQQQQQQf                           bQQQQWQQQQQQWQV9iiaasyyssssz:.   . ",
"      NQQQQQQQQQQQQQf                           bQQQQQQQQQQQQQB9yiiysssyysyz:...   ",
"      mQQQQQQQQQQQQQf                           bQQQQQQQQQQQQQV8yiiiiiiiiidl:  .   ",
"      NQQQQQQQQQQQQQf                           bQQQQQQQQQQQQQV0iiipiiiiidil:.   . ",
"     .mQQQQQQQQQQQQQf                           vQQQQQQQQQQQQQV0yiipiiiiiidl:    . ",
"      NQQQQQQQQQQQQQf                           bQQQQQQQQQQQQQV0iiiiiiiiiidl:.     ",
"      NQQQQQQQQQQQQQf                           bQQQQQQQQQQQQQV0yiiiiuiiidil>    . ",
"     .mQQQQQQQQQQQQQf                           vQQQQQQQQQQQEQV0iiipiiiiiidl:.     ",
"      NQQQQQQQQQQQQQf                           bQQQQQQQQQQQQQV0yiidiiiiidil>.     ",
"     .mQQQQQQQQQQQQQf                           vQQQQQQQQQQQQQV0iiiiiiiiiidl,    . ",
"     .mQQQQQQQQQQQQQf                           bQQQQQQQQQQQQQV8riipiiiiiaal:    . ",
"      NQQQQQQQQQQQQQf                           bQQQQQQQQQQQQQV0iiiiiiiiiial:. .   ",
"     .mQQQQQQQQQQQQQf                           vQQQQQQQQQQQQQV0iiipiiiiiaaz,.   . ",
"      mQQQQQQQQQQQQQf                           bQQQQQQQQQQQQQV0yiipiiiiiiaz:      ",
"     .NQQQQQQQQQQQQQf                           vQQQQQQQQQQQQQV0iiipaauiiaal:.     ",
"      mQQQQQQQQQQQQQf                           bQQQQQQQQQQQEQV0iiiiuuaiiaal:    . ",
"      mQQQQQQQQQQQQQf                           bQQQQQQQQQQQQQV0uiaaaaiaiidl:.   . ",
"      NQQQQQQQQQQQQQf                           vQQQQQQQQQQQQQV0iiiaauuaiial:.     ",
"     .NQQQQQQQQQQQQQf                           bQQQQQQQQQQQQQV8yiiiiiiiiidl:  .   ",
"      mQQQQQQQQQQQQQf                           bQQQQQQQQQQQQQV0iiipiiiiidil:.     ",
"     .mQQQQQQQQQQQQQf                           vQQQQQQQQQQQQQV0yiipiiiiiidl:      ",
"      mQQQQQQQQQQQQQf                           bQQQQQQQQQQQQQV0iiiiiiiiiidl:.     ",
"      NQQQQQQQQQQQQQf                           bQQQQQQQQQQQQQV0yiiiiuiiidil>    . ",
"     .mQQQQQQQQQQQQQf                           vQQQQQQQQQQQEQV0iiipiiiiiidl:.     ",
"      NQQQQQQQQQQQQQf                           bQQQQQQQQQQQQQV0yiidiiiiidil>.   . ",
"     .mQQQQQQQQQQQQQf                           bQQQQQQQQQQQQQV0iiiiiiiiiidl,      ",
"      mQQQQQQQQQQQQQf                           bQQQQQQQQQQQQQV8riipiiiiiaal:      ",
"      NQQQQQQQQQQQQQf                           bQQQQQQQQQQQQQV0iiiiiiiiiial:. . . ",
"     .mQQQQQQQQQQQQQf                           vQQQQQQQQQQQQQV0iiipiiiiiaaz,.     ",
"      NQQQQQQQQQQQQQf                           bQQQQQQQQQQQQQV0yiipiiiiiiaz:      ",
"      NQQQQQQQQQQQQQf                           vQQQQQQQQQQQQQV0iiipaauiiaal:.   . ",
"     .mQQQQQQQQQQQQQf                           bQQQQQQQQQQQEQV0iiiiuuaiiaal:      ",
"      NQQQQQQQQQQQQQf                           bQQQQQQQQQQQQQV0uiaaaaiaiidl:.     ",
"     .mQQQQQQQQQQQQQf                           vQQQQQQQQQQQQQV0iiiaauuaiial:.   ..",
"     .mQQQQQQQQQQQQQf                           bQQQQQQQQQQQQQV0iiiiiiiiidil>.     ",
"      NQQQQQQQQQQQQQf                           vQQQQQQQQQQQQQV0yiidiiiiiidl>    . ",
"     .mQQQQQQQQQQQQQf                           bQQQQQQQQQQQQQV8iiiiiiiiiaal>      ",
"      mQQQQQQQQQQQQQf                           bQQQQQQQQQQQQQV8iiiiiiiiiial>.   . ",
"     .NQQQQQQQQQQQQQf                           bQQQQQQQQQQQQQV0iiiiiiiiaial:    . ",
"      mQQQQQQQQQQQQQf                           bQQQQQQQQQQQQQV0iiidiiuiuaaz:. .   ",
"      mQQQQQQQQQQQQQf                           vQQQQQQQQQQQWQV0yidiiuiiiaaz,.     ",
"      NQQQQQQQQQQQQQf                           bQQQQQQQQQQQQQV0iiiaiiiiiiaz:    . ",
"     .NQQQQQQQQQQQQQf                           vQQQQQQQQQQQQQV8iiipiiiiiipk:    ..",
"      mQQQQQQQQQQQQQf                           bQQQQQQQQQQQWQV9yiiiiiiiiipl:. .   ",
"     .mQQQQQQQQQQQQQf                           bQQQQQQQQQQQQQV0yisiiiiiiiil:      ",
"      mQQQQQQQQQQQQQf                           vQQQQQQQQQQQQQV0iiipiiiiiipk: .  ..",
"      NQQQQQQQQQQQQQf                           bQQQQQQQQQQQQQV0iiisiiiiidak>. . . ",
"     .mQQQQQQQQQQQQQf                           vQQQQQQQQQQQQQV0yisiiyiiiidk>      ",
"      NQQQQQQQQQQQQQf                           bQQQQQQQQQQQQQV8iiipiiiiiisl>    ..",
"     .mQQQQQQQQQQQQQf                           bQQQQQQQQQQQQQV8iiiiiiiiiiik>      ",
" .   XmQQQQQQQQQQQQQf  X                      . vWQQQQQQQQQQWQBqyasaauyausal>.     ",
"      mQQQQQQQQQQQQQp     X                     bWQQQWQQQQWQQQVqyysaaaaasual>.   . ",
"      mQQQQQQQQQQQQQfX                          nQQQQQQQQQQQWQVqassaaaaasaik>    ..",
"      mQQQQQQQQQQQQQgX                      .   nQQQQQQQQQQQWQV6yyyaaaaududk>  ... ",
"     XNQQQQQQQQQQQQEp.XX                   XX   nQQQQQQQQQQQWQBqyysaaaaaaaak,.     ",
"      mQQQQQQQQQQQQEp  o X        X             bQQWQQQQQWQQQQVqyyaaaaaaaadk,.  . .",
"     .mQQQQQQQQQQQQQf  X X     .    X    .    X bWQQQQQQQQQQWQV0yaaaaauauaak,o   ..",
"   .  nQQQQQQQQQQQQQp  X XXX      X           XXbWQQQQQQQQWQWQV0ayaaauaaaaad;.   . ",
"   . .nQWQQQQQQQQQQQp  .                    o XXvQQQQQQQQQQQQQZtysaassssspfv<      ",
"     ONQWQQQQQQQQQERlO  XoXX   X.  X .X  X  o XObREQWQQWQQQQWQZisshhfffssjsp*oo    ",
"  . .opCNBNNMNNNmNNNVVVCCCVVVCCVCVVCCCVVCCVBCZVBZBmNNmmNMMMNBB5+%%%#$%$%$$$=O      ",
"      1f888888888056AEQQQQQQQQQQQQQQQQQQQQQQQQQEA4448868889wti=  .         .    X  ",
"      1hyyyiyyyyiye5FQQQQQQQQQQQQQQQQQQQQQQQEWQQD3riririuuuuta- ...                ",
"  ..  1hsassaasidii8FQQQQQWQQQQQQQQQQQQQQQQQWQQQD4rpppspadfdsz-.                   ",
".     1jsysayaiiiyi4FQQWWQQQQQQQQQQQQQQQQQQQQQEQD8iieypiiuiuik&. .                 ",
" . .. <hsyssyyiiiiy5DQQQQQQQQQQQQQQQQQQQQQQQWQQQA8idddipaaaask=o                   ",
"   .  1hiiaussaaiii5FQQQQQQQQQQQQQQQQQQQQQQQWQQQD6ysaaaaasussl- ..   .             ",
"      1lhasasusapii5FQQQQQWQQQQQQQQQQQQQQQQQWQQWD6yyyyyiuuusak-.  .                ",
"  .. .1kaiaaaaaaiii5FQQQWQQQQQQQQQQQQQQQQQQQQQQQD6yiasiiuuusak- .                  ",
"   ...1giuauaaauiyi5FQQWQQWQQQWQQWQQQQWQQQQWQQQQG6iiiiiyssuudk;... .               ",
"      1gkudfaasssid6GQQQQQWQQQQQQQQQQQQQQQQWEWQWS4tyiidauuuddk;    .               ",
"      1jkusuauuuiii5FQWQQWQQQQQQQQQQQQQQQQQQQQQQG8ysddiisduuuk; . .                ",
"    ..1jhususussdid8GQQQQQQQQQQQQQQQQQQQQQWQQWWWD6idiiiiuuupfl> .  .               ",
"      2lzlllzllzljltJQWQQQWQQQWQQQWQQQWQWQQQQQQQKejllllzxzxzzx>..                  ",
"   X.XO#$++++O+++++%eMmnbbbbbbbnnbbbbbnbbbbbvnbn8%+++@++O@+O@@o  ..                ",
"       .    .X ..   <de08000w9ww00q8ww99tqqe8tyd:  .....Xo Xoo   .                 ",
"                   .1situiiiuuuuiiiiiiiryyyieyyd, .             .                  ",
"     .             .<diiaiiiidaaiiiiiiiiyissspsh:               .                  ",
"                    <kffdiiipdpaddidaaaaaaiuiepf:                                  ",
"                    <fdattiipuuaiuuiiuiiiidipyfk,.                                 ",
"                    <ddauissfdudiiiiaaaaaaiidtif=                                  ",
"                    <fssuiuiuuddiiiiiiuiauiidtsl:.                                 ",
"                  . 2hhtuiiiauuuiiiiaiiiiuduiuaf>                                  ",
"                    <ahudsiiuddddiiiaaaaddduiufh<                                  ",
"                  . 2astaiuuduuuiiiiauiiuuusstff>                                  ",
"                    1hhuuiiidaddiiidaaaaddduuuka< ..                               ",
"                    2hhiszhuttatuuuuuuuuuuusaiks,                                  ",
"                  .+3fhiaskxczlxzzzzzzzxxclhshza<O.                                ",
"                .   +==*%-%%@@#+@@++++@@@+#%&&==+                                  ",
"                  .     .  .. ............     .  o                                ",
"     . .  .  . .  .  . .    .           . .oO.                                     ",
"                .  .. . ....   . .    .    ..    ..                                ",
" .  . .  . .. . .  . ..  .   . .     . ..        .                                 ",
"                                           . .   .                                 "
};
