/* XPM */
static char *result[] = {
/* columns rows colors chars-per-pixel */
"7 10 3 1 ",
"  c None",
". c white",
"X c None",
/* pixels */
"X     X",
"X  .. X",
"X ... X",
"X  .. X",
"XX .. X",
"XX .. X",
"XX .. X",
"XX .. X",
"XX .. X",
"XX    X"
};
