/* XPM */
static char *num11721587796[] = {
/* columns rows colors chars-per-pixel */
"83 124 72 1 ",
"  c #010101",
". c #080607",
"X c #060807",
"o c #050608",
"O c #090708",
"+ c #07080A",
"@ c #0A0A0A",
"# c #0E100F",
"$ c #131416",
"% c #151618",
"& c #17181A",
"* c #1B1C1C",
"= c #1E201F",
"- c #202020",
"; c #2A2B2C",
": c #2F3032",
"> c #333434",
", c #3C3C3D",
"< c #3E403F",
"1 c #3E3D41",
"2 c #403F44",
"3 c #3F4042",
"4 c #434344",
"5 c #444348",
"6 c #4B4B4B",
"7 c #4E4F52",
"8 c #4D5053",
"9 c #525355",
"0 c #585657",
"q c #565857",
"w c #575759",
"e c #595758",
"r c #57585A",
"t c #5B5B5C",
"y c #5E605F",
"u c #5E5F61",
"i c #5F6063",
"p c #626365",
"a c #686667",
"s c #666867",
"d c #656569",
"f c #68676C",
"g c #67686A",
"h c #6B6B6D",
"j c #6E706F",
"k c #6E6F71",
"l c #706F74",
"z c #6F7072",
"x c #727273",
"c c #757678",
"v c #77787A",
"b c #7C7C7D",
"n c #7E7F81",
"m c #868686",
"M c #8B8B8D",
"N c #939394",
"B c #97989A",
"V c #9C9C9D",
"C c #9E9FA1",
"Z c #A4A4A4",
"A c #A7A8AA",
"S c #A9A9AB",
"D c #B7B7B7",
"F c #BEBEBE",
"G c gray77",
"H c #CACBCA",
"J c #D3D3D3",
"K c #DBDBDB",
"L c #E3E3E3",
"P c #EAEAEA",
"I c #F5F5F5",
"U c #FEFEFE",
/* pixels */
"                                                    .                              ",
"                                    X                                              ",
"                              @                  .  O..                            ",
"                              @  @.              O. @           .                  ",
"                                @@ . @        O@ .  . ..      @                    ",
"                              .$   %          O#. ...        @@                    ",
"                                 *NPLPLLKLLLLLLPNe000ae90q00ee*.   .               ",
"                              @  @VUUUUUUUUUUUUUSaaaaxhjhxjjxv*@X                  ",
"                               .  ZUUUUUUUUUUUIIS9apputuyytyaj-.   @               ",
"                                . ZUUUUUUUUIUUUUS7appppiaapaaj-                    ",
"                               .  ZUUUUUUUUUUUUUS9ppppdpaapphj-                    ",
"                                  CUUUUUUUUUUUUUS7ppppdpppypaj-    X               ",
"                                  ZUUUUUUUUUUUUUS7ppdidipdpphj-.                   ",
"                                  ZUUUUUUUUUUUUUS9ppdpipdapdax-  .                 ",
"                                  ZUUUUUUUUUUUUUS8ddpddiipipgx-                    ",
"                                  ZUUUUUUUUUUUUUS7ddpppidaddfx-                    ",
"                                 .ZUIUUUUUUUUUUUS9ufpdpppdppsz=    .               ",
"                   .X             CUUUUUUUUUUUUUS9udpdppppipgz-                    ",
"                               @ .VUUIUUUUUUUUUUA9ddppppdpppgz-                    ",
"                @@   $           %BPUUUUUUUUUUUUA9udpdippdipgx-  X .               ",
"                   =mLKKKKKKKKKKJGPUIUUUUUUUUUUUS9pdpdpppdipgz-                    ",
"                 . @BUUUUUUUUUUUUUUUUUUUUUUUUUUUS8idppppppppgz-                    ",
"               X  . VUUUUUUUUUIIIUUUUIUUUUUUUUUUS8idppppdpppgk-                    ",
"               .  @ SUUIUUUIUUUUUUIIUUUUUUUUUUUUS9ifpdpppdppgx-                    ",
"                . . VIIUUUUUUUIUIUUUUUUUUUUUUUUUS9ispppppaipsz-    .               ",
"                  . ZUUUUUUUUUUUUUIUUIUUUUUUUUUUS9ippppipdpigz-                    ",
"                  X ZUUUUUUUUUUUUUUUUIUUUUUUUUUUS8pspppppdipgz-                    ",
"             .    @ CIUUUUUUUUUIUUUUUUUUUUUUUUUUS9ipdspppdppgx-  X .               ",
"                XX@ AUUUUUUUUUUUUUIUUUUUUUUUUUUUS9idpppppdipgz=                    ",
"             .@   X ZUUUUUUUUUUUUUUUIUUUUUUUUUUUS8pdppppppppgz-                    ",
"              @X.   ZUUUUUUIUUUUIUIUUUUUUUUUUUUUS9iapdpipappgz-                    ",
"                . @XAUIUUUUUUUIUIUUUUUUUUUUUUUUUS8idpdpppdppgx-                    ",
"      .          @  BUUUUUUUUUIUUUUIIUUUUUUUUUUUS9idpdppppipgz=    .               ",
"         . .       *VIUUUUUUUUIUIPUUUUUUUUUUUUUUS9pdpppppsppgz-                    ",
"      AFHGFHGGFFGHHDb6666565665646DIUUUUUUUUUUUUS9iaidpppsppgz-                    ",
"  .   JIUUIUUUUUIUUIa          @ @CUUUUUUUUUUUUUS8idpdppppipgx-  X .               ",
"      GUUUUUUUUUUUUUp             ZUUUUUUUUUUUUUS8ppddpppappgz-                    ",
"  .   HUUUIUUUUIUUUUt             VUIIUUUUUUUUUUA9idpdipdpipgz-                    ",
"      GUUUUUUUUUUUUUt             ZUUUUUUUUUUUUUA9pppdpppdipgz-                    ",
"      GUUUUUUUUUUIUUt             ZIUUUUUUUUUUUUA9iaidpppppdgz-                    ",
"      GUUUUUUUUIUUUUe             ZUUUUUUUUUUUUUS9isppppppppsz=    .               ",
"      GUUUUUUUUIUUUUt             VUUUUUUUUUUUUUS9isppppdsipsz-                    ",
"      GUUIUIUIUIUUUUt             ZUUUUUUUUUUUUUS8pppppipdipgz-                    ",
"      GUUUUUUUUUUUIUp             ZUUUUUUUUUUUUUS9ipdspppdppgx-  X .               ",
"      GUUIUUUUUIUUUIp.            ZUUUUUUUUUUUUUS9idipdppdipgz-                    ",
"      GUUIUUUUUUUUUUy             ZUUUUUUUUUUUUUS8igpappppppgz-                    ",
"      HUUIUUUIUUUUUUa             ZUUUUUUUUUUUUUA8iapppppdidgz-                    ",
"      HUUIUUUUUUIIUIg@            ZUUUUUUUUUUUUUS9idpppppdppgx-                    ",
"      >56<,<,,>>>464-             ZUUUUUUUUUUUUUA9igpdppppppsz=    .               ",
"        .       @                 ZUUUUUUUUUUUUUS9idppppppipgz-                    ",
"       X      ...   @@.           ZUUUUUUUUUUUUUS9ispppppsppgz-                    ",
"       .            .             ZUUUUUUUUUUUUUS9idpdpispidgz-  X .               ",
"     .                            ZUUUUUUUUUUUUUS8idddppppipgz-                    ",
"                                  ZUUUUUUUUUUUUUS9pdidpppdppgz-                    ",
"                                  ZUUUUUUUUUUUUUS9ippppppappgz-                    ",
"                                  ZUUUUUUUUUUUUUS8iapdpppdidgx-                    ",
"                                  ZUUUUUUUUUUUUUS9igpppppdipsz-    .               ",
"                                  ZUUUUUUUUUUUUUS9ispppppdpigz-                    ",
"                                  ZUUUUUUUUUUUUUS8ppdppippppgz-                    ",
"                                  ZUUUUUUUUUUUUUS9ispppppdppgx-  X .               ",
"                                  ZUUUUUUUUUUUUUS9iapsippdipgz=                    ",
"                                  ZUUUUUUUUUUUUUS8idppppppppgz-                    ",
"                                  ZUUUUUUUUUUUUUS9ippdpipappgz-                    ",
"                                  ZUUUUUUUUUUUUUS9igdppppdppgx-                    ",
"                                  ZUUUUUUUUUUUUUS9idddpppdppsz-                    ",
"                                  ZUUUUUUUUUUUUUS9idpdpipdipgz-                    ",
"                                  ZUUUUUUUUUUUUUS9ipidpppsppgz=  X                 ",
"                                  ZUUUUUUUUUUUUUS8papdpppdiigz-                    ",
"                                  ZUUUUUUUUUUUUUS8idpppppdipgz-                    ",
"                                  ZUUUUUUUUUUUUUA9idpdpppdppgx-                    ",
"                                  ZUUUUUUUUUUUUUS9iapppppappgz-                    ",
"                                  ZUUUUUUUUUUUUUS9ispppppdidgz-  .                 ",
"                                  ZUUUUUUUUUUUUUS9ispppppsppgz-                    ",
"                                  ZUUUUUUUUUUUUUS8iappppppipgz-    X               ",
"                                  ZUUUUUUUUUUUUUS9ippdppdsidgz-                    ",
"                                  ZUUUUUUUUUUUUUS9igppppppipgx-  .                 ",
"                                  ZUUUUUUUUUUUUUS8igddpppdipsz-    .               ",
"                                  ZUUUUUUUUUUUUUS9iaidpppdppgz-  X                 ",
"                                  ZUUUUUUUUUUUUUS9idpppppsppgz=                    ",
"                                  ZUUUUUUUUUUUUUS8idpdpippipgz-                    ",
"                                  ZUUUUUUUUUUUUUSridgiiiippihx-                    ",
"                                  AUUUUUUUUUUUUUA8iddgfidfpagx-                    ",
"                                  ZUUUUUUUUUUUUUAriiddigddaphj-.                   ",
"                                  ZUUUUUUUUUUUUUAriiddgpidpphl-  .                 ",
"             .X@                  ZUUUUUUUUUUUUUA8iipssgfdfghj-X            .      ",
"                    X   .         ZUUUUUUUUUUUUUAriiisppidpiaj-           .        ",
"                                  ZUUIUUUUUUUUUUSqiiyssispdigj-   .                ",
"                   .@@.           VUUIUUUUUUUUUUSiigsisspsssjc-      . @..         ",
"                   .          @@  VUUIUUUUUUUUUUS7et9atyttttps-X. o      X   @     ",
"                X.  .$.  @.      $VIUIUUUUUUUUIPC9q97yettqetys-   . oo+  @@@       ",
"                   .aSAZAAAAAAAZSZKUUUUUUUUUUUUULFGHGHGHHHGHHHh,2,412,41,1,,*      ",
"                X  @ZUUUUUUUUUUUUIIUUUUUUUUUUUIUUIUUUUUUUUUUUUChhhljxkxhzzjz>      ",
"                  X ZUUUUUUUUUUUUUUUUUUUUUUUUUUUUUUUUIUUUUUUUUBudffffffdhgzz:      ",
"              @     AUUUUUUUUUUUUUUUUUUUUUUUUUUUUUIUUUUUUUUUUUCruiiippdiiipz;      ",
"                @@  ZUUUUUUUUUUIUUIUUUUUUUUUUUUUUUIUUUUUUUUUUUB9idifddhdgdfz;      ",
"                 @  ZUUUUUUUUUUUUUUUUUUUUUUUUUUUIUUUUUUUUUUUUUC8udiiidprfipk;o     ",
"                    ZUUUUUUUUUUUUUUUUUUUUUUUUUUUUUUUUUUUUUUUUUBrufduhifiddiz;o o   ",
"                    ZUUUUUUUUUUUUUUUUUUUUUUUUUUUUUUUUUUUUUUUUUBtdfddhihididz;+o    ",
"                    CUUUUUUUUUUUUUUUUUUUUUUUUUUUUUUUUUUUUUUUUUVtudddhiiiiidh;      ",
"                  @XZUUUUUUUUUUUUUUUIUUUUUUUUUUUUUUUUUUIUUUUUUVtufiufijifdhz;      ",
"                 .@.CUUUUUUUUUUUUUUUUUUUUUUUUUUUUUUUUUUUUUUUUUVeuididiiiyysh;      ",
"                 .  VIUUUUUUUUUUUUUUUUUUUUUUUUUUUUUUUUUUUIUUUIV0rdiuddfzsjjj>+     ",
"                    VUUUUUUUUUUUUUUUUUUUUUUUUUUUUUUUUUUUUUUUUUZyudfddiiiisss>X     ",
"                    ZUUUUUUUUUUIUUUIUUUUUUUIUUUUUUIUUIUUUUUUUUSafnnfcczxjccx<#     ",
"                o  @iCNMMMMMMMMMMMMMMMMMMMMMMMMMMMMMMMMMMMMMNN,$@$#$$%%*=**#.      ",
"                 ++ :r9tweeewewewwrrrr8u09000r0rrtqqqq00eq00ts-@.@ .       X       ",
"                   o5kpiupupuupuuuupiduipuppppipiiiiiiippppapa*              X     ",
"                o   5kdadppddppddfpppddippppppppigfiadppspypaj-  @                 ",
"                 ooo1uffppfpddddfffpddddddddffddffifffdfpdddgz-  .                 ",
"             @. o   2nfuppppdippuddpdiddidddipdpiifiidiidappgz-                    ",
"                oooo2fufpfpfdpadffddfdddfffdddddfdddddddpfppgz-  .                 ",
"                 ooo1nffpppuddppiidiidifiiudppppiidddiidppppgj=  .                 ",
"                +   1kpdppppppppididpppdpppppppppgpgigiiigiddg*X                   ",
"                o  o,ffidippddddddfpddudgpgppgpgpppggidggfidhz=X                   ",
"              o   oo3bpfpdiddddpdpppudddpppppppppigpididfiippj-X                   ",
"            o o o  o:fgppfppdgdddpdddddufpdpgpgpfggipggpppfgzv=#                   ",
"              o +o o3viddiiidiiiiuuuuuuuuiiiiiiuiiiidiipppipgg-@                   ",
"              o   o$3zvcccvccvvcvcccnclnccccccvcvvvvccccvxvcnn*+                   ",
"            o @oo   $;$%$$$$$$$$%%$$$$%%$$$$$$$$&$$$$%$$$$$&%&++                   ",
"              +   +      o o oooooooooooooooo+ooooooXX  o o X+   .                 ",
"                 oooooo                                  o                         ",
"             oo o o o   oo ooo oo  o oo ooo oo o oo o  o  o                        ",
"            o   o    o o o    o    oo  o o    o  o  o  o     o                     ",
"                                                         o   o                     "
};
