/* XPM */
static char *num21721587796[] = {
/* columns rows colors chars-per-pixel */
"83 124 86 1 ",
"  c #010102",
". c #080607",
"X c #060807",
"o c #060609",
"O c #090708",
"+ c #0B0B0B",
"@ c #0E0E10",
"# c #141415",
"$ c #181617",
"% c #161619",
"& c #18171C",
"* c #17181A",
"= c #1B1B1C",
"- c #1E1D21",
"; c #232323",
": c #2D2D2D",
"> c #323234",
", c #353638",
"< c #3C3C3E",
"1 c #3F3F41",
"2 c #434344",
"3 c #454649",
"4 c #4B4B4C",
"5 c #504E4F",
"6 c #4D4E51",
"7 c #4F5052",
"8 c #535354",
"9 c #565857",
"0 c #565759",
"q c #575959",
"w c #5A5B5C",
"e c #5E605F",
"r c #5D5E61",
"t c #605F64",
"y c #5F6163",
"u c #636365",
"i c #666867",
"p c #656569",
"a c #68676C",
"s c #66696B",
"d c #6B6B6C",
"f c #6D6E71",
"g c #716F72",
"h c #6F7171",
"j c #727273",
"k c #757678",
"l c #77787A",
"z c #7A7B7C",
"x c #7F7F81",
"c c #7F8082",
"v c #828283",
"b c #868789",
"n c #87888A",
"m c #8B8B8D",
"M c #8E8F91",
"N c #8F9092",
"B c #939495",
"V c #949599",
"C c #97989B",
"Z c #9B9C9C",
"A c #9E9EA1",
"S c #9FA0A3",
"D c #A3A4A4",
"F c #A6A6A9",
"G c #A7A8AA",
"H c #AAAAAB",
"J c #AFAFB1",
"K c #B3B3B3",
"L c #B6B6B8",
"P c #BCBCBC",
"I c #C4C3C4",
"U c #C9C9C7",
"Y c #CBCBCB",
"T c #D0D0CE",
"R c #D3D3D3",
"E c #DADADA",
"W c #DEDFE1",
"Q c #E2E2E3",
"! c #E9E9E7",
"~ c #E6E7E9",
"^ c #ECECEC",
"/ c #F5F5F5",
"( c #F9F9F7",
") c #F6F7F9",
"_ c #F7F8FA",
"` c #FEFEFE",
/* pixels */
"                                                   X                               ",
"                     X                                                             ",
"                               .                      .            X               ",
"                    O+X                     X      X         .                     ",
"                    X      X    .     X     X +O        . ...   XX                 ",
"                X  X# =$ .   .            .   O  #..       .. OO                   ",
"                     +ZQQ^WWWQWQQQQQQQQQWWQQQQ^^!Ev39998988895e8-+oX               ",
"                     #P`/`/``````````````````/`(`(A9hdfhgggggdza-                  ",
"                    X I`(`(`(``````````(``````(``(b8uuuueuuuduuj=+@                ",
"                      I`_``_```````````````(``)``(b8uuppiauudeig#oo                ",
"                      I````(``````````````````(``(b8uupuuuutduig%oo                ",
"                      I```````````````````````````b5uuuruuuuiuig& o  o             ",
"                      I`(`````````````````````````v9pppppppyttad%o                 ",
"                      I`````````````````````````(`x9pprpyppptdad-                  ",
"                      I```````````````````````````x9yppyprpyudag-o o               ",
"                      I`(```````````````````````(`x8pyppppppyfaf-o o               ",
"                      I`/```````````````````(`````v8uupupupyrsff#o o             X ",
"       X            X U(```(```````````````(````)`v0tuwupupyyssf&o o o      .O     ",
"         X X          T`(```````````````````(```(`b6rpuyruppyrys=o             .   ",
"     @#              ;L^`````````````````````````QB488688877670y= ..oo    X O$ .   ",
"    X  @LQ^QEEREEEREYPd>;-=;;;;;;;;;;;;;;;;:@-;;;:L^WQQQWWW~~^~~b5555555885555$.   ",
" X  OO XR///(```(`````8    X                @@.   I`````````__`_Didgjggghhhjjh;O   ",
"        R``````````(^^4X+X                     +# R(```(`_``_`_`Z9uuiuuueuuuii=.  X",
"      X+I/``(````````^4 XXXO        X     X +    XT`````````_```Z5wuuuituuuedd$   X",
"    X  @I``(````````//8 + .                 X X  XU(``````````(`D5eiuiiuuuuupf;o   ",
"        T```````````/(4 + OX                X    oY```````````(`D8eiieuuuuaupf-    ",
"     X  R`````````````5 X X                   X  XY`````````````A5eiuuuiuiuuud-o  o",
"     O  R(````````````4 X                         Y```````````(`D8eiuuiuiupuud-    ",
"       XU```````````(`3 . X.                      U```````````(`A8eitptattaaaf-   o",
"       +I```````````(`4X .                        Y```````````(`D8eiiuatatataa- oo ",
"     X OU(_(````````(`4O X .                      Y`````````````D5eiittaattapf-  o ",
"     XX E```````````/`3X O+X                      Y```````````(`A8tatipattatpa- o o",
"    X+ XT``/``````````4X  X                       U```````````(`D5eiiuuiuuuuaa- o  ",
"     . =I(```````````/9# X.                       Y```````````(`D5eiuuuuatuaaa- o o",
"     O  19443335344448#                           Y`````````````D5eiuuuaatatad-   o",
"     X     XX        +   X                        Y```````````(`D5eiiuuutatadd-  o ",
"    X                                             Y```````````(`D5uiuuuuuuuaad-    ",
"          X.           XX                         Y```````````(`D5uiuuiuuuuuid-   o",
"      X             X                         X   U`````````````D5eiuuuuuuuuad-    ",
"     .   X .            X                         Y```````````(`D5eiuiuuuuauid-    ",
"                                                  Y```````````(`D8tattuueuuuiu;   o",
"                                                  Y```````````(`D5taiiuuiuuiid-    ",
"                                             X    Y(````````````D5tauuuuieuuud- X  ",
"                                       X     X    R`````````````D5tatiutieiueh; O  ",
"                                                  Y`````````_`_`A5taeieiiiuuug= X  ",
"                                              .X  U(``````````(`D5taiiieieuudh=    ",
"                                              +  OI)````````_`_`D0uiiiiiiiiihf-X   ",
"                                     XX    XO + X+P/__`)`__`````Dwagggggggggjd;+O  ",
"                                    DRURTTTTUTTYEIDZBBBNVVVAMVMM>#oo@@++#++@+#X  Xo",
"                                    P````(`(((//`!x3887088807ryy%ooo o     XXOX  Xo",
"                                    K((`(((((``(``m5ttturtrrryys#o o             Xo",
"                                    K``````(((`(((b9iiatpaaayssk-o   o             ",
"                                    K``(`````(``(`z5uiuippuyyyss&  o               ",
"                                    K``(``(````/(`vwiituypupyssk%o o               ",
"                                    K``(````(_````v9eiatypypypps=                  ",
"                                    H`````(````_`(n9utiippuuppsh&                  ",
"                       X            K````````````(v9uuiuuuuuuuih=X O               ",
"                          X         H`(``````````(vwiuuuuuuuuuid=O                 ",
"                     +  X           L````````_`_(`x8ieiuiiuuieij#                  ",
"                    X@  OX+O        H``(`_````````v9ieeuueuuiuhj=                  ",
"                     XX +         X H/`__`````````zqdiiiiidiiizj= OX               ",
"                    + #OX O+O  X    U/``_`__``````mdjjgjjdhkljzh;X                 ",
"                    X+BURYYUUUUUYUUUMnvmvncxxxzzvm;+@+@@@@@+..+$  XO               ",
"                     OP`````````````Mr408880wwwquj@         .. +XO                 ",
"                    X I`(``_``_`````C0pyryysyurwyf@                                ",
"                      I`(``_````````B8upyyyasspsdl#o           X                   ",
"                      I`````````````M8uppsppuiyupj@ o             .                ",
"                      I`)``````_````B8usppypyuuupg@                                ",
"                      I`_```````````C9uiypypyuuipk@o                               ",
"                      I`(```_```````C9euypiyyuyupj@                                ",
"                      I`````````````B5euypyiiiiidk@                                ",
"                      I`_``````````(B8eiysyiyiuupj@                                ",
"     X   X           oI)``````(`````B9eieieuiiiiaj@                                ",
"         O          o I```_`````````B9eieieieeeedj#o                               ",
"      X  X            I```_`````````Zeuiididieiijd#                                ",
"      . X+     X  X  &L/`_```_```_``Zudfdhdhhhhhhd-O                               ",
"      +#CLIPIPILPPIPJJLSAMVnVCVVVVVC<=$=$=$--==#$;                                 ",
"       XE``(`````````_N386r6077r088r$         X  @ X                               ",
"     O  T((`````````__M3aprryyyprppd#  O      +  +                                 ",
"       OT````(````_`__S6parpprpspaag#    ..X  .  X                                 ",
"       XI`/`````````_/C6rarypyypyypf&    X   . X                                   ",
"       XI`(``````````)A6rsrppyppppdf=o  XX    . X X                                ",
"       XU`(``````````)C8parappppppsh&    X       .X                                ",
"        Y```````````_)B6rarapypypusf&           .                                  ",
"        Y`````````````B6yyyfppppuusd%                       .X.             .X     ",
"        R`````````````B8yyyyypypuuud%                       X                      ",
"      X Y```````````(`B8yyyyyyyyuusd#          X                                   ",
"        R```````````_`B0fsfsssssspsd=      X X        X    X++XX             XX    ",
"        Y`````````````B3yeqyyeeerrrp+X                             .   Xo    o X   ",
"        R```````````/^m8989999990www@X ..X .X X XX X.  ..X   X+#O  .   Xooo oo oo  ",
"        Y```````````/`RPUUUUUUIUUUYYJDDGGDDGHDGGDGDGGGGGDGGGGDGDd22332<2112131@  o ",
"        R```````````(`((```````````````````````````````````````(Gudidddgffffka- o  ",
"        Y````````````````(```````````````````````````````````_``Headdaddaaaaga-ooo ",
"        R`````````````(````````````````````````````````````````/Z5eeuuuutpppap-o   ",
"        Y```````````````````````````````````````````````````````H8uuiaauaaaaff-  oo",
"        R```````````````````````````````````````````````````_```H8tiutpptattaa-oooo",
"        T(`````````````````````````````````````````````````````_D7trpspsppsafs-ooo ",
"        T``````````````````````````````````````````````````````_D5ttpspssspsaa-ooo ",
"      X T_``````````````````````````````````````````````````````A6uuuyyuyyyuaf-oo o",
"        R(``````````````````````````````````````````````````_```F8pppupupypupf-  oo",
"        R(`_````````````````````````````````````````````````____Z4ryuupiauiuta-oooo",
"        R(``````````````````````````````````````````````````````G8sppupuuuuuaf-    ",
"      XXR__`````````````````````````````````````````````````____S7uyupupiiiihj;    ",
"       oR_`(````(``(``````(````(``(````(``(``(``_``_``_``_``````Hujfjkjjjjjjjk;++o ",
"    o oolMZmmmMmmmmmmmmmmmmmmnMMmmmmmnmnmmmmmmmmmmmmmmmmmMmmnnnM,-&&#########-  +  ",
"    o o 6ww889000000000000090000w000r8rr00990000998w000988090wwp#     XX..X  @  @  ",
"     oo 3ttutttttttttutttututuryturtrryyuutuuttttututtutyyrrwyus& oo         X  X  ",
"     o o8fauiiuippppuuuiuupuuusyuuptppypuuuuuuuiiuuuuuuuuspuusph&            +     ",
"     o o4gtttaataaaaapaaapppssaapppapapaaapsiappppausupspupsusdh-o                 ",
"     o o4gaaaitttttttptruuupyyyspupyprptyrpyuutpuuuuuuuuuuuyyuus*  o               ",
"     ooo4aatataaaaaapapppppppppspppppppaapppppppppsuuuuuusususdh-  o          X    ",
"       o7faatatttpttttpprprpppyypypyppypyyprpptpuuuuuuuuuyuuyppd&o                 ",
"        7hppuuysuuuuuuuuuupuuuuupyuuuuuuuupuuuuuuuiyiuuipyuuyudh&o                 ",
"     Xo 7syupppiuupupiupupupippppppppuppupupipipppppuppuipsssusf#oo                ",
"     o  6dpsuuuuuuuupyupuuupyuuupuuyuuuuuuupyuiyuuuyuuypuuuyuwsd=oo                ",
"       o4fspuspusupiipuipuppppiupupppipupuppppupiuppppuiupspduhf#                  ",
"    @o o6fyyryypyyyyyyyyyyyyyryyyyyyyyyyyyyyyryyyyyyyyyyyypyyrkf= o                ",
" X     &8llllkkklkkkkkkkkkkklklkkkkkkkkkkkkklllkkkkkkkkkkklkhfkf-oo                ",
"    +o  #;%&&##########%#########%###%%#########%%##%#%####&-&;;o                  ",
"     oo o+ +o ooooooXX oooooooooooooXo Xoooooo o ooooX Xooo o  o                   ",
"    oooo   o                                                 o ooooo               ",
"       oooo  oooo oooo o o o oo  oo o o o  o oooo  o ooo oo o    oo                ",
"         oo   o        o o  o   o    o     o  o       o  o                         ",
"         o                                       o           o oo                  "
};
