/* XPM */
static char *num31721587796[] = {
/* columns rows colors chars-per-pixel */
"83 124 77 1 ",
"  c #010102",
". c #060608",
"X c #07080A",
"o c #0B0B0B",
"O c #0E0E11",
"+ c #100F14",
"@ c #0F1012",
"# c #131314",
"$ c #171719",
"% c #17181B",
"& c #1A1A1B",
"* c #1D1D21",
"= c #211F20",
"- c #1F2024",
"; c #232324",
": c #292728",
"> c #27282A",
", c #2A2A2B",
"< c #2E2F31",
"1 c #363636",
"2 c #3A3A3A",
"3 c #3E3F41",
"4 c #444444",
"5 c #47484A",
"6 c #4B4B4C",
"7 c #4D4E50",
"8 c #4F5052",
"9 c #535455",
"0 c #565857",
"q c #565759",
"w c #57585A",
"e c #5B5B5D",
"r c #5E5F61",
"t c #5F6163",
"y c #636365",
"u c #656669",
"i c #68676C",
"p c #67686A",
"a c #6A6A6C",
"s c #6E6D71",
"d c #706F74",
"f c #6F7072",
"g c #727374",
"h c #757678",
"j c #77787A",
"k c #7B7B7C",
"l c #7E7F81",
"z c #838384",
"x c #868887",
"c c #858688",
"v c #878889",
"b c #8A8B8C",
"n c #8D8E90",
"m c #939395",
"M c #969799",
"N c #97989A",
"B c #9B9B9C",
"V c #9E9FA1",
"C c #A7A7A7",
"Z c #A8A8A9",
"A c #B5B5B5",
"S c #BCBCBC",
"D c #C1C1C1",
"F c #CDCDCD",
"G c #D2D2D2",
"H c #D7D7D9",
"J c #DBDBDC",
"K c #DEDFE1",
"L c #DFE0E2",
"P c #E2E3E3",
"I c #E5E6E8",
"U c #ECECEC",
"Y c #F3F3F3",
"T c #F8F6F7",
"R c #F6F7F9",
"E c #F9F7F8",
"W c #FEFEFE",
/* pixels */
"                .    o                                                             ",
"                .                                                                  ",
"                    . o                  .           ..     .                      ",
"               X .  @ o                           .. .                             ",
"                    .        .  X     .        .@    oo .    .                     ",
"                 #$# &.                   .     $  o       o  .o                   ",
"              .oX   $SHPPPPPPPPPPPPPPPPPKPPKPPPUJx9e00re999qqe0o.                  ",
"                 .  oJWWWWWWWWWWWWWWWWWWWWWWWWWWYnefaugafsssssho.                  ",
"               .  .  PWWWWWWWWWWWWEWWWWEWWWWWWWWYz0yyyyyyyryyuuo.   .              ",
"                     KEWEWWWEWWWWWWWWWWWWWWWWWWETk0ayyyyaauaaaa#. .  .             ",
"                     KWWWWWWWWWWWWWWWWWWWWWWWWWWTk9yyuyyyyryraao  .  .             ",
"                     JWWWWWWWWWWWWWWWWWWWWWWWWWWEk9yruyiyyyyyaao.    .             ",
"                     JWWWWWWWWWWWWWWWWWWWWWWWWWWEl9yyuyyiiuuiia+  .  .             ",
"                     JWWWWWWWWWWWWWWWWWWWWWWWWWWWz9yyuyiyyryyiiO.    .             ",
"                     JWWWWWWWWWWWWWWWWWWWWWWWWWWEk0yyuyyiuiiiss+.    . .           ",
"                   . HWWWWWWWWWWWWWWWWWWWWWWWWWWEz0puiyuyyyyyiiO.    .             ",
"        .           oGWWWWWWWWWWWWWWWWWWWWWWWWEWEz9aeapyyyyyyuao . . .      .      ",
"       .            .FWWWWWWWWWWWWWWWWWWWWWWWWWWWx9yreyapyuuuaa#. .  .  . .        ",
"  .     X           .JWWWWWWWWWWWWWWWWWWWWWWWWWWTk6yutereeeerryo ..  .      o      ",
"        .      . o. oJWWWWWWWWWWWWWWWWWWWWWWWWWWUm663y009099e90$ .X  . ..  .#      ",
"       GJHHJHHJLGHUJAyO:;;;;;;;;;;;;;;;;;;;;=:=@2FKYPUGKPLLLKPUa6888888800608$o    ",
"   .   YWEWWEWEWYWEWW;.                         oYEWWEWWWWWWWWWmufffhhffssaga&     ",
"       YWWWWWWWWWWUYW@.                        @ YUYWTWWWWWWWWWz0rttupetuptay#o    ",
"       YWEWWWWEUWEWWE,  .                .      XUEWWYEWWWWWWWWc0pptspttysyfy#     ",
"       UEWWWWWWWWTWUW=o                        X YTTWTWWWWWWWWWcwtppptpayaeaa# .   ",
"       UEWWWWWWWWTWUW=.                         .UWTEEWWWWWWWWWcwtttptuayataa#  .  ",
"       UEWWWWEWWWEWTW=                          .UWWRWWWWWWWWWWx0tpttutttataa+ .  .",
"       UWWWWWWWWWEWWW;.                         .YWWWWWWWWWWWWWx0pttptppyiyaaO     ",
"       UEWWWWEWWWTWWW;                           TWWWTWWWWWWWWWx0tttayyyyyyasO   . ",
"       UEWWWWWWWTWRRT;                           TEWWTWWWWWWWWWx0ttpyyyiyyyaso. . .",
"       UWWWWWWWWTWWWE;.                          YWWWWWWWWWWWWWv9tutpyyyyyyasO   ..",
"       UEWWWWWWWYWWWW,.                          UWWEWWWWWWWWWWv0ttyyyyyyyaygo. . .",
"       YEWWEWWEWWEEWW:.                          YWWWWWWWWWWWWWc0ttppttiiriisO.   .",
"       TWWWWWWWWWWWEU,                           YWWWWWWWWWWWWWcwtptppitiriisO.. . ",
" .     4664465445667yo.                          YWWWWWWWWWWWWWc9ttuptiiituiiO     ",
"        .        .  o                            YWWWWWWWWWWWWWc0tuypttiiruusO.. . ",
"     .                                           YWWWWWWWWWWWWWc9tuyiyyuitiii+.  . ",
"                                                 YWWWWWWWWWWWWWc0tyuiyyuiyyii+ .   ",
"  . .           X.X                              YWWWWWWWWWWWWWc9yyyuypyiyiid+.    ",
"                    .                            YWWWWWWWWWWWWWc9yyuuyyyiyyii+..   ",
"                                                 YWWWWWWWWWWWWWb9ytyayyyuyuud+     ",
"                                                 UWEWEWWWWWWWWWb9yypayyyuyyya+     ",
"                                                .UWWWWWWWWWWWWWc0yyuyyyyaaaaaO     ",
"                 .                              .TWWEWWWWWWWWWWz0yayyyyyrrypao     ",
"                  ..                           ..TEWUWWWWWWWWWWxeyuuyuyuaarap#o    ",
"                                                 YEWYWEWWWWWWWWc0yyyyyyyereayo.    ",
"               .oX                              .UWWTWEWWWRWWRWbeeyyyayaagakf#.    ",
"                  .oOo.                         OKWEWWTWEWWWWRWmaaafagafyurfa&O    ",
"               . .  .SFGGGGGGFGGGGFGGGFGGGGFGFFFGCnmkmBmmmmmmBm=X.oOoOO#@##$#o     ",
"                . ..OJYEWWWWWWWWWWWWWWWWWWWWWWWWYk909e000069090#. .. ...   .XX     ",
"                o   XPWWWWWWWWWWWEWWWEWWEWWWWEEWEf0eey0eyyreuuao ..                ",
"                .    JEWWWWWWWWWWWWWWWWWWWWWWWWWWketaaaaaraayaao. .. ..  .         ",
"                    XGWWWWWWWWWWWWWWWWWWWWWWWWWWWz6rpyyyyttyyya#  ..               ",
"                 .  oGWWWWWWWWWWWWWWWWWWWWWWWWWWYx9ayryytpyruau@.   .  .           ",
"                    XHWWWWWWWWWWWWWWWWWWWWWWWWWWEz8yeayayyypypa#.    . .           ",
"                     JWWWWWWWWWWWWWWWWWWWWWWWWWWEk0araeyyyyyyaaO  ..               ",
"                X  . GWWWWWWWWWWWWWWWWWWWWWWWWWWEk9aypyypyytyaaO . .         .     ",
"                X    JWWWWWWWWWWWWWWWWWWWWWWWWWWEz0ytyyyyyytyap#. .. . .           ",
"                     JEWWWWWWWWWWWWWWWWWWWWWWWWWEz0eypuyyryptaao     .        .    ",
"                 X.  UWWWWWWWWWWWWWWWWWWWWWWWWWEEk0ryeyuypyyppyO... .X . ..        ",
"                . O  PEWWWWWWWWWWWWWWWWWWWWWWWEETg8yyyyuyytyyyao .   o   .  . o    ",
"                # X =KEWWWWWWWWEEWWWWWWWEWWWWWWEUB6644666867669@ ..  o . . oo      ",
"               .. o. 2211111111111111111111111<,2SFPULKKKLLJJPKy56766q6968674#.    ",
"               .    . .                       . oUEEWRWWWWWWWWWnaidaygufasahe#     ",
"              .X.  . X ... .. .  .. .  .. ... .. YWWWWWWWWWWWWWbwtttpuutyraag#     ",
"                   .XXX                          YWEWEWWWWWWWWWbqyutpuuuayuaa#     ",
"                    .                            YWWWEWWWWWWWWWc9tuupyyparyyaoo    ",
"                                                 YWWWWWWWWWWWWWcqtuuytyuaruygo     ",
"                                                 YWWWWWWWWWWWWWc9yyyattyuruua#     ",
"                                                 YWWWWWWWWWWWWWc9tpppytyauauao     ",
"                                                 YWWWWWWWWWWWWWv9yyypyyyyyayfO     ",
"                                                 YWWWWWWWWWWWWWb9ppypypyayapa@.    ",
"                                                 YWWWWWWWWWWWWWc9yyyututiuiisO     ",
"                  .o .                           YWWWWWWWWWWWWWc9yyyituuiruuaO .   ",
"      .         o                                YWWWWWWWWWWWWWc0pyyiutuituusO.    ",
"        .  .  .  ..o& .                          YWWWWWWWWWWWWWc9yyyitiuituusO   . ",
".    . SDDDDDSDDDSSSD;.                          YWWWWWWWWWWWWWc9tpppttiiyiii+ .   ",
"       YWWWWWWWWEEWEW=                           YWWWWWWWWWWWWWc0tttstuiiytii+.. . ",
"    .  YWWWWWWWWWWWYW;X                          YWWWWWWWWWWWWWc0ttpppititiil+..   ",
"       UWWEWWWEWWYWWW&                           YWWWWWWWWWWWWWc0tpttttiiriii+..   ",
"       UWWWWWWETEWWWY,                          .YWWWWWWWWWWWWWb3lltuuitiriisO. . .",
"       UWWEWWWWWWEWYT:                          oUWWEWWWWWWWWWWc7t8riuuiiyuusO ..  ",
"       UWWWWEWWWWTWYW;                          oYWWWWWWWWWWWWWb8llwututiruisO   . ",
"       UWWWWWWWEWEWEW=                          .UWWWWWWWWWWWWWb78ttuttuiriisO.    ",
"       UWWWWWWWWWWTEW- .                        .UEWWWWWWWWWWWWv8wtlitiisuiuaO   . ",
"       UWWWWWWWWWWTWE=          .               oUEEWEWWWWWWWWWv8lt8iuttiruuaO .   ",
"       UWWWWWWWEEWEEW$.   .         X           oUEWEWWWWWWWWWWc3ll8utyyiyuis#..   ",
"       IWWWWWWWEWWTYW#.           .          . X.UEWWWWWWWWWWWWc7ttwuuttdiiuso     ",
"       UWWWWEWWWWWWWW; .                         YWWWEEWEEEWWWWnwlutlwtwuussd..    ",
"       UWWWWEWWWRWWRP< .X.. X  X .. ...  . .  X.$HETWEWWTTEEWWWbwtlitlllhssia%o.   ",
"       bBBBBBBBNmNMBZVCZCCCCCCCZZCCZCCCCZZZZZCCCBABmVmNNmBBBMBV3%--*-*++&%*&:.     ",
"       5e0999w9w9e89yHRWWWWWWWWWWWWWWWWWWWWWWWWWYz60e889000099e@+XXX.XXX  ..X.     ",
"       epuyyryruryrewPWWWWWWWWWWWWWWWWWWWWWWWWWETk6y0yyyyrreryy#. . ....     X     ",
"    .  esauuyiuiturtrIWWWWWWWWWWWWWWWWWWWWWWWWWWTz9aefayyyayyaa#.........  .       ",
" .    .eiyytturytatrtKWWWWWWWWWWWWWWWWWWWWWWWWEETk0aeayryryryuao...  ...           ",
"       esayuuiytyurraJWWWWWWWWWWWWWWWWWWWWWWWWWETz0eyyyyyyyyuuao.  ...  .   .      ",
"     . eaauiiiiiiitrtIWWWWWWWWWWWWWWWWWWWWWWWWWWWl9ttuyyyypauaa#. .  .  .          ",
"    .  euuttuttutttrrLWRWWWWWWWWWWWWWWWWWWWWWWWWWcqpuuryyyyyuuao  .                ",
"       raayyiiiitiuruIRWWWWWWWWWEWWEWWWWWWWWWWWWRlwuuuyyyrryyuao  .  ..            ",
"     . rpuytututrutetIWWWWWWWWWWWWWWWWWWWWWWWWWWWl0uuauuyyyruaa#. .                ",
"       rpptttiiutuyeyPWWWWWWWWWWWWWWWWWWWWWWWWWWRj0ettyyuuuyuaa#  .   .            ",
"    .  etpsputiiyuyeyPWWWWWWWWWWWWWWWWWWWWWWWWWRWkyyaiaayuyryuao ..                ",
"       ypptptttptuyruPWEWWWWWWWWWWWWWWWWRWWWWWWRThrryryyuayyyaao..                 ",
"      .ujjhhhsflffffgUWEWWRWWWEWWEWWEWWERWRWRWRWWzssdahgggggggg#  .  .             ",
"      .o@##$####&$##&hmxbbbbbbnnnbbbbnbnnbbbbbbbM;%@$$$##$#@#$o                    ",
"       ...... ..o    9u00qqqwwwwqqqqww00wwwwwwwws......... ..XX                    ",
"                     0yeytytryttytytrytttttttttta                                  ",
"                   ..0sayyyyyyyuyyyyyyuyttpupttth. ..                              ",
"                     9ayauuupppiuuiuppupuuuuppppg. .                               ",
"                o .  0sutyyytuttuyyyyttttttutttuf   . .                            ",
"                     esyuyyyuuuuuuuuuuuupppuuyuas  .                               ",
"                     qauyyuytuttyyyyyytyyttuttuag  .  .                            ",
"                  .  eauuyyuyyyyyuyyuyuyyyyyyyyfs   .                              ",
"                     0yyyyyyuyuuyuyuyyyyyyuyyuuup   ...                            ",
"                    .rgyyyyytyyyyyyyyyyyyytyuytsk. X                               ",
"                ..   7ayuuuuuuuuuyuyuuuuuupuyupuh  X  ..                           ",
"                ..  .0kuttytytttytytrtyyytyyyttshX ...                             ",
"                 o .O8skjhhjhjjhhhhhjhhjhhhhjkhau#.. ..                            ",
"               .   . ==&#$#@#$###%+##+#$@$%####><                                  ",
"               .   o o  .. .................... o... . .                           ",
"                   ...          .               ... .                              ",
"                  .  ..  .  . . .  ... .. . . .... . . .                           ",
"                          .. . .      .  .  .  . . .  .                            ",
"                                 .                                                 "
};
