/* XPM */
static char *num41721587797[] = {
/* columns rows colors chars-per-pixel */
"83 124 55 1 ",
"  c #010101",
". c #080607",
"X c #060509",
"o c #08070D",
"O c #0A0A0B",
"+ c #0D0E11",
"@ c #151516",
"# c #161619",
"$ c #1B1B1C",
"% c #1D1D21",
"& c #222223",
"* c gray16",
"= c #4A4B4B",
"- c #4E4F51",
"; c #535355",
": c #535659",
"> c #57585A",
", c #5C5C5D",
"< c #5E5E61",
"1 c #605F64",
"2 c #5F6063",
"3 c #636466",
"4 c #656569",
"5 c #68676C",
"6 c #67686A",
"7 c #6A6A6A",
"8 c #6E6F71",
"9 c #706F74",
"0 c #6F7072",
"q c #727274",
"w c #767779",
"e c #7A7A7D",
"r c #7E7E81",
"t c #808486",
"y c #868688",
"u c #87888A",
"i c #8A8B8C",
"p c #8E8E90",
"a c #939495",
"s c gray62",
"d c #A6A6A8",
"f c #A7A8AA",
"g c #B4B5B7",
"h c #C5C6C5",
"j c #CDCDCC",
"k c #CED0CF",
"l c #D0D0CE",
"z c #D4D4D4",
"x c #DDDDDD",
"c c #E3E3E3",
"v c #EBEBEB",
"b c #F2F2F3",
"n c #F6F8F7",
"m c #F6F7F9",
"M c #FEFEFE",
/* pixels */
"      .                                                                            ",
"                                                             ..           ..       ",
"        .         . O                       .  . . .                    .          ",
"  .  . ..           +. .                  . .  O .             .             ..    ",
"   .   O .         .   .                  O ...O.  .   .                  .. ..    ",
"   @+ +. . ..   . O& .O.                    O@. &O. .   .   O@.  ..    .  .+  .    ",
"  .  #hvvcxcccccxcxz&.                   .OO  .#jccccxcccxcccjr;;>>>>;;;;;;=@..    ",
"  .  OvMMbMMMnMMMMMM& O.                  .. O +cMMnMMMMMMMnMvp;<787q9877qw3$ .    ",
"     .bMMMMMMMnMMnMM+  .                        vMMMMMMMMMMmMMy>054232333377   .   ",
"     .bMMMnMMMMMMMnn+                        .  vMMMnMMMMnMmmMr;524677564607       ",
"     .bMMMMMMMMMMMMM@  .                        vMMMMMMMMMMMMMt;426233233376       ",
"      bnMMMMMMMMMMMM@                           vMMMMMMMMMMMMMy;822233333377 .     ",
"      bMMMMMMMMMMMMM@                          .vMMMMMMMMMmMmMr:522535333377 .     ",
"     .vMMMMMMMMMMMMM#                           vMMMMMMMMMMMMMr:525233223377X      ",
"      vMMMMMMMMMMMMM#.                       .  vMMMMMMMMMMmMMr>562444355377 .     ",
"     .bMMMMMMMMMMMMM@.                          vMMMMMMMMMMMMMt:524424333577.      ",
"      bnMMMMMMMMMMMM@                        .  vMMMMMMMMMmMMMt:226332633377..     ",
"      bMMMMMMMMMMMMM@.                          vMMMMMMMMMMMMMt:333336233377..     ",
"      bnMMMMMMMMMMMM@                           vMMMMMMMMMMMMMt:333332633367O.     ",
"      bMMMMMMMMMMMMM@                        .  vMMMMMMMMMMMmMt:333333633377O      ",
"      bMMMMMMMMMMMMM@                        .  vMMMMMMMMMMMMMt:263333363377.      ",
"      bnMMMMMMMMMMMM@.                          vMMMMMMMMMMMMMt:333333333367O      ",
"      bnMMMMMMMMMMMM@                        .  vMMMMMMMMMmMmMt:336226633377.      ",
"      bMMMMMMMMMMMMM@                           vMMMMMMMMMMMMmt:333333233376.      ",
"      bMMMMMMMMMMMMM@.                          vMMMMMMMMMmMMMt:633333333377.      ",
"      vMMMMMMMMMMMMM@                        .  vMMMMMMMMMMMMMt:233333633377.      ",
"      bnMMMMMMMMMMMM@                           vMMMMMMMMMMMMMt:633323263367.      ",
"      bMMMMMMMMMMMMM@                        .  vMMMMMMMMMMMmMt:233363623367.      ",
"      bMMMMMMMMMMMMM@                        .  vMMMMMMMMMMMMMt:332633333367.      ",
"      vMMMMMMMMMMMMM@.                          vMMMMMMMMMMMMMt:623333633377.      ",
"      bMMMMMMMMMMMMM@                        .  vMMMMMMMMMmMmMt:433333333377.      ",
"      bnMMMMMMMMMMMM@                           vMMMMMMMMMMMMmt:333333333377.      ",
"      bnMMMMMMMMMMMM@                           vMMMMMMMMMmMMMt:333333333367..     ",
"      bMMMMMMMMMMMMM@                        .  vMMMMMMMMMMMMMt:333333633377.      ",
"      vMMMMMMMMMMMMM@                           vMMMMMMMMMMMMMt:333333333377.      ",
"      bMMMMMMMMMMMMM#                        .  vMMMMMMMMMMMmMt:332333333377.      ",
"      bMMMMMMMMMMMMM@.                       .  vMMMMMMMMMMMMMt:333333663367..     ",
"      bnMMMMMMMMMMMM#                           vMMMMMMMMMMMMMt:663333323377.      ",
"      vMMMMMMMMMMMMM@                           vMMMMMMMMMmMmMt:223633633377.. .   ",
"      bMMMMMMMMMMMMM@                        .  vMMMMMMMMMMMMmt:333233233377. ..   ",
"     .vMMMMMMMMMMMMM#.                        . vMMMMMMMMMmMMMt:263333333377..     ",
"     .vMMMMMMMMMMMMM#.  X                       vMMMMMMMMMMMMMt:333333633377.      ",
"      bnMMMMMMMMMMMm#X  X                  .    vMMMMMMMMMMMMMt:633333263367.      ",
"      bnMMMMMMMMMMMM#o                     . .. vnMMMMMMMMMMmMt:232333623366.      ",
"  .   bnMMMMMMMMMMMm#X   X                   .. vnMMMMMMMMMMMMt:333333633377.      ",
"     .bnMMMMMMMMMMMm@X  XX                .     cMMMMMMMMMMMMMt:333333333377.      ",
"  .  .vMMMMMMMMMMMMm#oo X                 . .  OcMMMMMMMMMmMmMt:632333333377.      ",
"   ..OvMMMnMMnMmmMmm@oX  .                . .  OxMMMMMMMMMMMMmt:336333333377.      ",
"     OtsaaaaaaaaaaufgzzkjhkkllllllllllllljzzzzhhnnMMMMMMMMmMMMt:226332633377..     ",
"  ..  ;,--;;;-;;:--7mMnMvMMMnMMMMMMMMMMMMMMMMMbvMnMMMMMMMMMMMMt:333336233377..     ",
"   ...,32<3<3333222:mmmMnMMMMnMnnnnnnnnnnMMnnMMMMnnMMMMMMMMMMMt:333332633367O.     ",
"     .,737733433662,MMMMMnnMnMMMMMMMMMMMMMMMnMMnMMMMMMMMMMMMmMt:333333633377O      ",
"  .X  20<333333322,8mMMMMMMMnMMMMMnMnMMMMMnMMMMMMMMMMMMMMMMMMMt:263333363377.      ",
"      ,7334333342627vbMMbMMMMMMMMnMMMMMMMMnnnnMMnMMMMMMMMMMMMMt:333333333367O      ",
"   .. 373343344326:2MMmMnMMMMMnMMMMMMMMMMMMMMMMMMMMMMMMMMMmMmMt:336226633377.      ",
"      ,7333424246222bMMmMMMMMMMMMMMMMMMMMMMnMMMMMMMMMMMMMMMMMmt:333333233376.      ",
"      ,7733333373322nMMMMMMMMMMMnMMMMMMMMMMMMMMnMnMMMMMMMMmMMMt:633333333377.      ",
"     .,7733<33332322mMMMMnMMMMMMMMMMMMMMMMMMMMMMMMMMMMMMMMMMMMt:233333633377.      ",
"     .>37337333466,2nMMMMnMMMMMMMMMMMMMMMMMMMMMMnMMMMMMMMMMMMMt:633323263367.      ",
"     .,77<33333322:8MMMMMMMMMMMMMMMMMMMMMMnnnnMMMMMMMMMMMMMMmMt:233363623367.      ",
"  .. O>07365446674:7bmMmMmMMMMnMmMnMMnMMnMnMMMMMnnMMMMMMMMMMMMt:332633333367.      ",
"     @>0w0000qw0007rMMMMMMMMMMMMMMMMMMMMMMMnnbbvMMMMMMMMMMMMMMt:623333633377.      ",
"  ... @@+++++++++Oo+wwtwrerretrrtrrrrrrrrrryiiypcnMnMMMMMMmMmMt:433333333377.      ",
"   .. .  .        X <<7>>>,,1,1,,,<<,1,,,,;;>==>cMMMMMMMMMMMMmt:333333333377.      ",
"  .  .  X   X X  XXX;11115<22<<1<22<22<2225377,,nnMMMMMMMMMMMMt:222626623377..     ",
"       .X       X XX>511154454555354444443323,;,bnMMMMMMMMMMmMt:222662623377.      ",
"        X  X    XX X<9411444441533333424333373,,bnMMMMMMMMMMMMt:626244623377..     ",
"            X X    X<943154<124233332423335777,,nnMMMMMMMMMMMMt:622622443377.      ",
"                   X<8332662424433333333337333,,nnMMMMMMMMMMmMt:223344623377.      ",
"                X  X:5332626445233733733333333,,bMMMMMMMMMMMMMt:633342663367.      ",
"          X  X      >8352762622233333333333333,,nMMMMMMMMMmMmMt:633333263367.      ",
"                   X>9452662222533333333333137,,bMMMMMMMMMMMMMt:333336233367.      ",
"                    >q2776333,33333333337,,7732,bMMMMMMMMMMMmMt:363333333367..     ",
"                  ..>q,322223333332131<3,37333<2nMMMMMMMMMMMMMt:223333633377.      ",
"                  ..,w7766777737777777777777772,bnMMMMMMMMMMmMt:333333633377.      ",
"                  .O;87777787777707777788787773,MMMMMMMMMMmMMMt:333333333377.      ",
"                    $&$$&&$@$@@@@@#@#@@@@$$$@@@@xbMMMMMMMMmMMMt:222333333367..     ",
"                    .       ....        ....   .cMMMMMMMMMMMMMt:663333333377.  .   ",
"                 .  ....   ...  .  .... .   ..X.vMMMMMMMMMMMmMt:333333333377...    ",
"                       .                        cMMMMMMMMMMMMMt:263333633377. .    ",
"                      . .                 .  . .vMMMMMMMMMMMMMt:622333633377.      ",
"                     .                    .  .  vMMMMMMMMMmMmmt:633333333367.      ",
"                   .                         . .vMMMMMMMMMMMMMt:332633333367.      ",
"                                                vMMMMMMMMMmMMMt:232633333367.      ",
"                                                vMMMMMMMMMMMmMt:633333333377..     ",
"                                             .  vMMMMMMMMMMMMMt:632363633377.      ",
"                                             . .vMMMMMMMMMMMMMt:333333333377.      ",
"                                                vMMMMMMMMMmMmmt:333333333377.      ",
"                                             .  vMMMMMMMMMMMMMt:222333263377..     ",
"                                                vMMMMMMMMMMMmMt:663333623377.      ",
"                                                vMMMMMMMMMMMMMt:333333633377.      ",
"                                             .  vMMMMMMMMMMMMMt:333323333337..     ",
"                                                vMMMMMMMMMMMMMt:333363263377.      ",
"                                             .  vMMMMMMMMMMMMMt:233333633377.      ",
"                                                vMMMMMMMMMmMmMt:633333333367.      ",
"                                             .  vMMMMMMMMMMMMMt:333336233447.      ",
"                                                vnMMMMMMMMMMMMt>333333332373O  O   ",
"                                             .  vMnMMMMMMMMMMMt:233363336677O. .   ",
"                                            .  .vnMMMMMMMMMMMMt:322332332278..  .  ",
"                                                vMMMMMMnMMMMMMy,673322333367 .. .  ",
"                                               .vMnMMMMMMnMmmmr-222366737378    .  ",
"                                                vMMMMMMMMMMMMMy<636333232778   .   ",
"                                               .vMMMMMMMMMmmnmt,223333763378O. .   ",
"                                               .vMnMnMMnMMMMMMi6qqqwqwqqw063O.   . ",
"                                               +ydpiiipyiiyuau&$%%@@+@+@@@*&.    . ",
"                                            ooX =>>;>>>>>>;;3<     oooXXO ..  .O   ",
"                                         X.     ,<4311<1313355+o+      X      .    ",
"                                         X     X18411717343353            ..       ",
"                                        X   oX  >8177773474353X   X                ",
"                                          X    X17411133333153X X     X        .   ",
"                                             X  ;1477473377383o  X         .       ",
"                                            XX  1q114113333153o X             .    ",
"                                            X  X45226263315551oX X X               ",
"                                              XX<4646322355551o X   X              ",
"                                              oX2524236211415<oo      X            ",
"                                          XX  X :557363655145<o XXX  X             ",
"                                           Xo Xo<w223232<<<49<#X oX  X             ",
"                                            X X+-0wweewewrrrr<%        X           ",
"                                          o   X %&@@@@@@####%%X oo X               ",
"                                          o  XX X.XXXX X XX XX XX   X X            ",
"                                              XXX.        XX XXXXX  X  X           ",
"                                             XXXXX   XX X XXXXXXX X                ",
"                                            X X   X      X X XX X                  ",
"                                                            X XXXX  X              "
};
