/* XPM */
static char *num51721587797[] = {
/* columns rows colors chars-per-pixel */
"83 124 66 1 ",
"  c #010101",
". c #080607",
"X c #060807",
"o c #050509",
"O c #07080A",
"+ c #0A0A0B",
"@ c #100F14",
"# c #131415",
"$ c #15161A",
"% c #1C1C1C",
"& c #202020",
"* c #27282A",
"= c #2A2A2B",
"- c #3E3E3E",
"; c #454647",
": c #4B4B4D",
"> c #4D4E50",
", c #545455",
"< c #575759",
"1 c #575959",
"2 c #5B5C5D",
"3 c #5D605F",
"4 c #5D5E61",
"5 c #5F6162",
"6 c #636465",
"7 c #646867",
"8 c #656669",
"9 c #67686A",
"0 c #6A6A6C",
"q c #6E706F",
"w c #6D6E71",
"e c #6F7073",
"r c #727273",
"t c #767877",
"y c #757678",
"u c #77787A",
"i c #7A7C7B",
"p c #7E807F",
"a c gray52",
"s c #87888A",
"d c #8B8B8D",
"f c #8E8F91",
"g c #939394",
"h c #97989A",
"j c #9A9B9B",
"k c #9D9EA0",
"l c #9FA0A2",
"z c #A7A7A7",
"x c #ACACAC",
"c c #BCBCBC",
"v c #C2C2C2",
"b c #C6C5CA",
"n c #CBCBCC",
"m c #D5D5D6",
"M c #DBDCDC",
"N c #DFDEE3",
"B c #E3E3E4",
"V c #E5E4E9",
"C c #E8E7EC",
"Z c #ECECEC",
"A c #EEEDF2",
"S c #F4F4F4",
"D c #F8F6F7",
"F c #F6F6F9",
"G c #F7F8FA",
"H c #FEFEFE",
/* pixels */
"                                                                         X         ",
"     X                                                                   .         ",
"     X                                                                .       .    ",
"       .                                                   . X          +X.X       ",
"       X   X      .  .      .    .   .        .     .           .  . ...  .  ...   ",
"  . . .+                .                  .    .       X.X.X X .. .   .  ..+@     ",
"  .   X$BBBBBBBBNBBBBBNBBBBNBBBBBBBBBBBBBBBBBBMBBBBNBBBBMMMBBMMM,,,,,,<,,,2>1;#+   ",
"      +&HHHHHHHHHHHHHHHHHHHHHHHHHHHHHHHHHHHHHHHHHHHHHHHHHHHHHHHGqqqrqrrw0rr0i3@    ",
"       %HHHHHHHDHHHHHHHDHHHHHHHHHHDHHHHHHHSHHHHHHHHHHHHHHHHHHHHS8<486646624680     ",
"       %HHHHHDHHHHHHHHHHDHHHHHHHHHHHHHHHHHHHHHHHDHHHHHHHHHHHHHHS0488886086880woo   ",
"    .  %HHHHHHHHHHHHHHHHHHHHHHHHHHHHHHHHHHHHHHHHHHHHHHHHHHHHHHHS9448884886689wo    ",
"       %HHHHHHHHHHHHHHHHHHHHHHHHHHHHHHHHHHHHHHHHHHHHHHHHHHHHHHHS84884848846690     ",
"       %HHHHHHHHHHHHHHHHHHHHHHHHHHHHHHHHHHHHHHHHHHHHHHHHHHHHHHHS8488888986889wo    ",
".      %HHHHHHHHHHHHHHHHHHHHHHHHHHHHHHHHHHHHHHHHHHHHHHHHHHHHHHHSw4888889868899o    ",
"    X  %HHHHHHHHHHHHHHHHHHHHHHHHHHHHHHHHHHHHHHHHHHHHHHHHHHHHHHHS0488886886988w     ",
"       %HHHHHHHHHHHHHHHHHHHHHHHHHHHHHHHHHHHHHHHHHHHHHHHHHHHHHHHS04484868888090oo   ",
"       %HHHHHHHHHHHHSHHHHHHHHHHHHHHHHHHHHHHHGGGGHHHHHHHHHHHHHHHS844884489988wyoo   ",
"       %HHHHHHHHHHHHHHHSHHHHHHHHHHHHHHHHHHHHHGGGHHHHHHHHHHHHHHHSw889w889888899oo   ",
"       %HHHHHHHHHHHSHHHHDDSSHHHHHHHHHHHHHHHHHHAFHHHHHHHGHHHHHHHS9849w88888w8y8o    ",
"       %HHHHHHHHHHHHHHZSDDSZHHHHHHHHHHGGHHHHHHACHHHHHHHGHDHHHHHDyyeyyyeyuee8y9#o   ",
"       %HHHHHHHHDSHSDVgpiiiiiiiiiiiipptpiiiiyuuyiiiiiippppppipptO ooOoooOoOo#$ o   ",
"       %HHHHHHHHHHHHHB3;22,111111111,3,31111115111111113,,13,11,o   o   ooO  oo+   ",
"       %HHHHHHHHDDDHDH736666066677767757577657777677557733575773o    o  oooo  o    ",
"       %HHHHHHHHHHGHSD236366336335335553555355555533355575573573o   o   oooo OOo   ",
"       %HHHHHHHHHHHHHD6266777767777777778887777777888888777777w5         XX        ",
"       %HHHHHHHHHHHHHD336666366675755555558555758858888555555575            . .X   ",
"       %HHHHHHHHHHDHHD336666666665757575858575858555888477705795                   ",
"       %HHHHHHHHHHDHHD3366666666775757798588788855558888575777w5                   ",
"       %HHHHHHHHDHHHHS326663666658555595585885585588888888885885                   ",
"       %HHHHHHHHHHHHHS3166666666558557555558585558885848888878w8                   ",
"       %HHHHHHHHHHHHHD3366666676888885w5888888858888448858585585                   ",
"       %HHHHHHHHHHGDHD66667766765888899958888588ww888888888888w5                   ",
"       %HHHHHHHHHDGGHG1;222222224442214114141422><759696664966w4                   ",
"       %HHHHHHHHHHHDSB06222223324445444444444444we446666666966w4                   ",
"       %HHHHHHHHHHHDHHbnMMMMMMMMNNMMNMMNMMMMMMMMmne5666686666694                   ",
"       %HHHHHHHHHHHDHHDHHDHHHHHHGGGGGHGGHHHHGHGHHGw44469686866w4                   ",
"       %HHHHHHHHDHHHHDHHHHHHHHHHHHHHHHHHHHHHHHHHSG848556686866w4                   ",
"       %HHHHHHHHHHHHHHHHHHHHHHHHHHHHHHGHHHHHHHHHGH959566685866w4                   ",
"       %HHHHHHHHHHHHDHHHHHHHHHHHHHHHHHHHHHHHHHHHHH7<858968666694                   ",
"       %HHHHHHHHHHHHHHHHHHHHHHHHHHHHHHHHHHHHHHHHHGw19566666866w4                   ",
"       %HHHHHHHHHHHHHHHHHHHHHHHHHHHHHHHHHHHHHHHHGD04640686866806      o    o       ",
"  .   .%HHHHHHHHHHHHHHHHHHHHHHHHHHHHHHHHHHHHHHHHGA02660686666894   o        o      ",
".      %HHHHHHHHHHHHHHHHHHHHHHHHHHHHHDHHHHHHHHDHHH04646486886996  o            o   ",
"       %HHHHHHHHHHHHHHHHHHHHHHHHHHHHHHDDHHHHDHHHGD02600686886994o   o o  o  oo o   ",
"      X%HHHHHHHHHHHHHHHHHHHHHHHHHDHDHHHHHDHDHHHHHG92660666664602 oooooooo oooo     ",
"  X   .$HHHHHHHHHHHHHHHHHHHHHHHHHHHHHDDHHHHHHDDHHG02666464664002o        oo o o    ",
"      .$HHHHHHHHHHHHHHHHHHHHHHHHHHDDHHHHDHDDHHHHSS02240664442662 oo o o ooooooo    ",
"  .  ..$HHHHHHHHHHHHHHHHHHHHHHHHDHHHHDDHHHHHHDDHHHy4<:<22<2<222,o oooo ooooooo     ",
" .   .X+-----------------------------------------;bNVSNVVVVVVCCN,;:>>>:>,>>2;:@o   ",
"      .                                          @GHHGAGHGHHGHHGy9weeewe800u86#    ",
"                                                + HSGHHHHHHHHHHG92466846898w06O    ",
"                                                o FHFHGHHHHHHHHF02688868562688Oo   ",
"                                                 oZGHHHHHHHHHHHF024866665968w0     ",
"                                                ooHHHGFHHGHHGHHS94588866686688     ",
"                                                  ADHHHHHHHHHHHS02486866866680.o   ",
"                                                 oAHHSHHHHHHHHHA02466656658090o    ",
"                                                  SHHHHHHHHHHHHS04486848666899o    ",
"                                                  SHHHHHHGHHHHHS92486666666899     ",
"                                                  SHHHHHHHHHHHHS02568658666899     ",
"                                                 XSHHHHHHHHHHHHS02486858666899o    ",
"                                                 XSHHHHHHHHHHHHS02586858666880     ",
"                                                  SHHHHHHHHHHHHS92486858566999     ",
"                                                  SHHHHHHHHHHHHS02586858666899     ",
"                                                  SHHHHHHHHHHHHS92566848685899     ",
"                                                  SHGHHHHHHHHHHS92487666685899o    ",
"                                                 XSHHHHHHHHHHHHS02466848566899     ",
"                                                 XSHHHHHHHHHHHHS02476666686799o    ",
"                                                  SHHHHHHHHHHHHS02588858665899     ",
"                                                 .SHHHHHHHHHHHHS02566666666899     ",
"                                                  SHHHHHHHHHHHHS02586858686898o    ",
"                                                  SHHHHHHHHHHHHS92566858666899o    ",
"                                                 XSHHHHHHHHHHHHS92586856666889     ",
"                  X    X                         XSHHHHHHHHHHHHS02486856666899     ",
"                  XX  +                           SHHHHHHHHHHHHS04486866666899o    ",
"    .               . +                           SHHHHHHHHHHHHS92586868666899     ",
"X    . . .  .   +.   + +                          SHHHHHHHHHHHHS02566846666899     ",
"      X#vvvvcvvvcbvncx+                           SHGHHHHHHHHHHS94566866666888     ",
"  X   X%HHHHHHHHHHSHHS+.                         XSHHHHHHHHHHHHS92486858666899o    ",
"  .    &HHHHHHHHHDDHHH.                          XSHHHHHHHHHHHHS92486666666899.    ",
"  X    %HHHHHHHHHHHHSVX                           SHHHHHHHHHHHHS04486858666899     ",
"       &HHHHHHHHHZHHDSX                          .SHHHGHHHHHHHGS94488868488900     ",
"    .  %HHHHHHHHHSHDHD.X                          AGHHGHHDHHHHGD94888856984999     ",
"X X    %HHHHHHHHHHHSHS +                          AHHHGHHDHHHHGD04585858885888     ",
"X      %HHHHHHHHHHHDHS X                         .AHHHGHHHHHHHGS0<486657885999oo   ",
"       &HHHHHHHHHZDHSZX                          .SDGGDGHGHHGHHD04486667584907     ",
"       %HHHHHHHHHZHHSZ@         .             . ..SGGGDHGHHHHHGD04486637846900     ",
"       %HHHHHHHHHHDHHZ+X   .      . .           ..SDGHFHHHHHHHHS92486636776907..   ",
"X   .  %HHHHHHHHDHSSHV        .           . .     ADDGFHHGHHHHHS92386667788900..   ",
" X    X%DDDHHHHHDSHHHH .                        . HHHHSDHHHHHHHS0760006766q77r     ",
" X  X .$DSDHDHHDHHDDSM$.XXXXX  XXXX  XXXX XX.oXX %mFDDHHGGGHHHHFq090q000rqrq70+.   ",
" X  .  @jjjjhgjggjgjkkjlzzzzzzzzzzzzzzzzzzzzzzzzkljjjflgkkhkhhkf&%%&&&%&@@$#&=..   ",
"       +,,,,,,,,:,,110AHHHHHHHHHHHHHHHHHHHHHHHHHHS0<2>1:,,><,,<>       .+X   .     ",
"        66636366736213HHHHHHHHHHHHHHHHHHHHHHHHHHGG4>756884486584              X    ",
"     . .00067776q30220HHHHHHHHHHHHHHHHHHHHHHHHHHHHw<656w88888806         X         ",
"        3663636622q220SHHHHHHHHHHHHHHHHHHHHHHHHHGSw49444884886w4              XX   ",
"      X 00007666777220HHHHHHHHHHHHHHHHHHHHHHHHHHHFe484w488488804             X     ",
"        7976766639663qHHHHHHHHHHHHHHHHHHHHHHHHHHHH04559988885994                   ",
"        66666633673317HHHHHHHHHHHHHHHHHHHHHHHHHHHG84858488886906                   ",
"        907776667q6630HHHHHHHHHHHHHHHHHHHHHHHHHHHH04988658845792                   ",
"        66666666273737DHHHHHGHHGHHHHHHHHHHHHHHHHHG01584884886896                   ",
"       .06666663596749HHGHHHGHHHHHHHHHHHHHHHHHHHHD01393088877896                   ",
"        66066666804649HHHHHHHHHHHHHHHHHHHHHHHHHHHSq1696954674873                   ",
"        06666666704859GHHHHHHHHHHHHHHHHHHHHHHHHHDSq2603688896796                   ",
"        rrtrrrrrwywyeuHGGHGHGHGHHHGHHHHGGHGHGHHDHHpqrt00yerrqttq                   ",
"        %##@##@+$##@$$sffssffsdfddddddddddddddddfa%%##%#@###@###                   ",
"     .  ++.  ...o o   68<<<<<<<<<<<<<<<<11<,<<<<76    . .. X.. X                   ",
"        ...       ooo 5445464464646484443666666463 .                               ",
"        ...           9w68668666886888887666666809 .  .                            ",
"                      6888888886888888888888888873    .                            ",
"                o ooo 9966666666848848884886666606 . X                             ",
"                  o o 8988688886888888888888888606 X                               ",
"                o     9966564666488448884886666696    X                            ",
"                  o o w968686668888484866666666687   .                             ",
"                o o   8866668666888888888668866696                                 ",
"                  o oo0w666646664884684866666667q6..                               ",
"                 o    289999998988888888988888889,   ..                            ",
"                 Oo  O5r455565555565446455566555t3+  X                             ",
"                 o  o$2wuuuuuuuuyyyyyyyyuyuuuuuur1$X                               ",
"                oo    **#####$###$@$#$@$$$$@$###*&     X                           ",
"                 o oo @ ooo ooooo.o..... o ooooo . XX                              ",
"                  oooo o                        ...                                ",
"                    o o o  oo o o   o o o oo oo  ..                                ",
"                o  o oo    o o o   o o o    o         .                            ",
"                       o                       o                                   "
};
