/* XPM */
static char *num61721587797[] = {
/* columns rows colors chars-per-pixel */
"83 124 69 1 ",
"  c #010102",
". c #060807",
"X c #060609",
"o c #08070C",
"O c #07080B",
"+ c #0A0A0A",
"@ c #0D0C11",
"# c #100F14",
"$ c #131414",
"% c #161719",
"& c #1C1C1D",
"* c #222323",
"= c #262729",
"- c #2B2B2B",
"; c #363636",
": c #3A3A39",
"> c #434344",
", c #464749",
"< c #474949",
"1 c #4A4B4D",
"2 c #4E4E51",
"3 c #535354",
"4 c #565759",
"5 c #57585C",
"6 c #5B5B5D",
"7 c #5E605F",
"8 c #5D5E61",
"9 c #645F63",
"0 c #5F6063",
"q c #636465",
"w c #666867",
"e c #656669",
"r c #68676C",
"t c #67686A",
"y c #6A6B6C",
"u c #6E706F",
"i c #6D6E71",
"p c #6F7072",
"a c #737374",
"s c #757678",
"d c #77787A",
"f c #7A7A7B",
"g c #8B8B8C",
"h c #8D8E90",
"j c #939395",
"k c #979799",
"l c #9A9A9C",
"z c #A6A6A6",
"x c #ABABAB",
"c c #C4C4C4",
"v c #CCCCCC",
"b c #D2D2D2",
"n c #D8D8D6",
"m c #DCDCDD",
"M c #DEDFE1",
"N c #DFE1E1",
"B c #E3E3E4",
"V c #E5E6E8",
"C c #EDEDED",
"Z c #F0EEEF",
"A c #F1EFF0",
"S c #EFF1F0",
"D c #F4F4F4",
"F c #F8F3F7",
"G c #F8F8F6",
"H c #F6F6F8",
"J c #F9F4F8",
"K c #F7F9F8",
"L c #FEFEFE",
/* pixels */
"                       .  .                   .                                    ",
"                            .                                                      ",
"                      + .+.               ..          .             .              ",
"                      $ .                    .     ..         .                    ",
"                      +    + .. .     .   .    ++ . . . .     .  .++               ",
"                     . &+  .            .         $ .         ...                  ",
"                     .:BDVmNNBBNBBNBBBBBNNNNBBVVDVvu333443444346>%.+               ",
"                      *CDLLLLLLLLLLLLLLLLLLLLLLHLLVf6uuuuupiiyif4@ X               ",
"                      $LLKKLKLLLLLLGLLLLLLLKLLGLLLAw9qqqqq9qqwqy8 o+X              ",
"                      $LLKLLLLLLLLLLLLLKLLLLLLGLGLAw9qqewqrwqr9y8  X               ",
"                      $LLKLLLLLLLLLLLLLLLLLLLLKLLKAw6qqqqqqqqq9r8  X X             ",
"                      $LLLLLLLLLLLLLLLLLLLLLLLKLLLAw49qqq9qqqrey8  X               ",
"                      $LLKLLLLLLLLLLLLLLLLLLLLLLLLCy5eeqe90eer9i8                  ",
"                      $KLLLLLLLLLLLLLLLLLLLLLLLLLLCy5qeqeeeeee9i8  X               ",
"                      $LLLLLLLLLLLLLLLLLLLLLLLLLLLCy59ee998r9r9i8XX                ",
"                      $LLKLLLLLLLLLLLLLLLLLLLLLKGLCu5ee8err9rr9i8X                 ",
"         +            $LLKLLHLLLLLLLLLLLLLLLLKLGLLBu3w0qwqwq0qey8  X               ",
"           .          +LLLDLKKLLLLLLLLLLLLLLLLLGLLZy77w0000qqqqt8     .     .+.    ",
"                     .$LLLDLLLLLLLLLLLLLLLLLLHLLLGA970q000qq00008 X                ",
"         *.           &CGLLAKLLLLLLLLLLLLLLLLLGZALVd>323333332346  OX..    . +. . +",
"       .*vnNmnnnnnnmnBx>%*-*&*=*=**=**=*=**=&&&-*-4vSmVNNNNNNVVVm7322232332223>$  .",
"       .*KLLLLLLLLLGLLA#   #                 ++@  $ALLLLLLLLLLLLKuqyuuuuuuuuuf9#   ",
"     .  *LLLKLLLLLLLLAH @+ +                 . ..#-LALKLKLLKLKKKGw79www9qqww9wu  + ",
"      . =DLLDLLLLLLLLLV.  . . .          .   + +  &LKLLLLLLLLLLLG94679797q999wu. + ",
"      . -GLGLLLLLLLLLLD.+   .                .+.. =HLLLLLLLLLLKLH06qwqw9w7w99yu+   ",
"        =GLGLLLLLLLLLLD .  .                   ++ -KKLLKLLLLLLLLH05www7w9w997w7 ...",
"        *HLGLLLLLLLLLKD .                     .   -KLLLLLKLLLLLLH06tqwwwwwq9wuy    ",
"        *LLLLLLLLLLLLLD                      ..   -KLLLLLLLLLLKLK06qq9977ww9wuu    ",
"        *LLLLLLLLLLLLLD                         ..-LKLLLLLLLLLKLG76qw79w999w99w..  ",
"        *LLLLLLLLLLLLLD                         . -GKLLLLLLKLLKLGw6www77w7w79q9... ",
"        &LLKLLLLLLLLLLH                      ..   =GLLLLLLLLLLKLG96ww9w97ww7quu    ",
"        &LLLLLLLLLLLLLH .                         -GKLLLLKLLLLLLG769w79ww9w9qww    ",
"        *LLLLLLLLLLLLLD                       .   =LKLLLLLLKLLKLLq00ryywywywyua .  ",
"        &LLLLLLLLLLLLLD                         ..-GKLLLLKLKLLLLKiituyytyyyywqw#+. ",
"        *LLLLLLLLLLLLLD                           @lkjjjjjjjjhgjh$%$&$$$$$$$%&=    ",
"        *LLLLLLLLLLLLLD                        .   w732333333330q             .    ",
"        *LLLLLLLLLLLLLH                        .  .7wqqqqqq0000e0 X .              ",
"        &LLLLLLLLLLLLLD .                      .   9wwqqqqeqt00p8XX            .   ",
"        *LLLLLLLLLLLLLD                         . +wuwwqqewweeep8                  ",
"        &LLLLLLLLLLLLLD                       .   .qw9wwqee0qqqi5             +    ",
"        *LLLLLLLLLLLLLD .                    . +  .7uq0weeeeweep8X                 ",
"        *LLLLLLLLLLLLLH    .                   .  .7q0qqq00qqqqy8  X               ",
"        &LKLLLLLLLLLLLH    .                     ..wqqw0q0qq0w0y8                  ",
"        *LLLLLLLLLLLLKD .. .                  .    wwwwqwqqeqq0y8                  ",
"        *LLLLLLLLLLLLKD .. .                  + .  wwqqwweeeqe0y8                  ",
"        *LLLLLLLLLLLLLC. . ..                 +   .quq0q0q0qqeqy8  X               ",
"        &LLLLLLLLLLLLLV+   .                      +6uqq0qqqqwewi8                  ",
"        *LLLLLLLLLLLLLN@ .  .                 .   @1w0weeeqe0e0y8                  ",
"        *LLLLLLLLLLLLLDccnvmcbvbbbvbbbvbvbbvbcbnnncu7wqqqqqqqq0p8                  ",
"        &LLLLLLLLLLLLKKCLLDLKLLLLLLLLLLLLLLLLKLDGLAy77qqwqqqwq0y8                  ",
"        *LLLLLLLLLLLLLLLLLHLLLLKKLLLKLLLLKLLLKKLLGGy7wqqqq0qqequ8                  ",
"        *LLLLLLLLLLLLLKLGLKLLLLLLLLLLLLLLLLLLGLLLDVw7qqqqwqqqe0y8                  ",
"        *LLLLLLLLLLLLLLLLLLKLLLLLLLLLLLLLLLLLLLKGLVu69qqqeqqeq0p8  X               ",
"        &LLLLLLLLLLLLLKLLLLKLLLLLLLLLLLLLLLLLKLHGLNa6wqqqe0qqw0y8                  ",
"        *LLLLLLLLLLLLLLLLKLLLLLLLLLLLLLLLLLLLLLLLGBw47www0qqweqi8            X     ",
"        *LLLLLLLLLLLLLLLLLLLKLLLLLLLLLLLLLLLLLKLLGDw7ww9eqqq0e0y8     X            ",
"        *LLLLLLLLLLLLLLLKLLLLLLLLLLLLLLLLLLLLLLKGGCq7q0e0eqqq0qt8  X               ",
"        &LLLLLLLLLLLLLKLLLLLLLLLLLLLLLLLLLLLLKLLLDNu7w0wq000wtttq    X     XXXXX  X",
"        *LLLLLLLLLLLLLGLLLKLLLLLLLLLLLLLLLLKLLLHLLDu30e0wttqq0qt8       X          ",
"        *LLLLLLLLLLLLKDLLLLLKLLLLLLLLLLLLLLLLKLHLDCq7qw0000qqtqw8X X XX     XXX  X ",
"        *LLLLLLLLLLLLLLGLGDLLLLLLLLLLLLLLLLLLGLGGGGw770weqq0q00q8X      X X X o XX ",
"        &LLLLLLLLLLLLDLmLLLKGKLLLKLLLLLLKLLLLLLGLGCa2<2<<111<1133  oo XX   XXo@XXo ",
"        *LLLLLLLLLLLLDm:--=-;:;;;;;;;;;;;;;:;---;:7cNmmMNMmMNNVVv811<111112212>#XXX",
"        *LLLLLLLLLLLLLV@ .                    ++  &CLLLLLLLLLLLLVa0riiriiririf9% X ",
"        *LLLLLLLLLLLLLC      ... .. .. ... . ..+. =LLLLLLLLLLLLLHeqqwqqqqqqeeye X  ",
"        *LLLLLLLLLLLLKC ...                  . .. *LLGLLLLLKLKLKZ84890qqeqq00yr    ",
"        &LKLLLLLLLLLLLC .                      .  =LLLLLLLLLLLLLHe9qqeeqqqw0eyt   X",
"        *LLLLLLLLLLLLLD                           *LLLLLLLLLLLLLDe6qqqqqqqqewytXX  ",
"        *LLLLLLLLLLLLLA                           *LLLLLLLLLLLLLDq40qqqqqe00qytX  X",
"        *LLLLLLLLLLLLLD .                      .  =LLLLLLLLLLLLLDw70rqqeqqeweyt X  ",
"        &LLLLLLLLLLLLLH                           =LLLLLLLLLLLLLD850qqqqeqqeqyrX X ",
"        *LLLLLLLLLLLLLD                           =LLLLLLLLLLLLLHq80tqqqqqqqqyt    ",
"        *LLLLLLLLLLLLLD                           *LLLLLLLLLLLLLH85wtqqqqqeqqit X  ",
"        &LLLLLLLLLLLLLD                           =LLLLLLLLLLLLLH95qqqqqqqq0quyX   ",
"        *LLLLLLLLLLLLLD                           *LLLLLLLLLLLLLH95qqqqqqqqqeyr    ",
"        &LLLLLLLLLLLLLD                           =LLLLLLLLLLLLLH96qeqqqqeqqeyt    ",
"        *LLLLLLLLLLLLLH                           *LLLLLLLLLLLLLH06wwqqqqee0tirXX  ",
"        *LLLLLLLLLLLLLD                           =LLLLLLLLLLLLLH04qqqqqqqqqqyr    ",
"        &LLLLLLLLLLLLLD                           *LLLLLLLLLLLLLH74qqqqqq0eqqyr   X",
"        *LLLLLLLLLLLLLD                           *LLLLLLLLLLLLLH96qeqqqqeq0eiyX   ",
"        *LLLLLLLLLLLLLA    .                      =LLLLLLLLLLLJLDq6q00w0e0e00rrXX  ",
"        *LJLLLLLLLLLLLC    .                      =LLLLLLLLLLLLLFq5q0t000ee0rirXXXX",
"        *LLLLLLLLLLLLLD    +                 .    =LLLLLLLLLLLLLF950tt0teeeerit  XX",
"       .*LJLLLLLLLLLLLA    +                   .  =LLLLLLLLLLLLLJ97e0twweete0ii X X",
"     .. =LLLLLLLLLLLLJC  . +                 . .  =LLLLLLLLLLLLLJ95e0wwteeeeett    ",
"     .  *LLLLLLLLLLLLLZ    +                   . .*GLLLLLLLLLLJLG96eeww0ee0eett.X  ",
"     X  *LLLLLLLLLLLLLC..  +     . .         . . .=GLLLLLLLLLLLLG96e0eeeeee0wrr    ",
"       .*KLLLLLLLLLLLGC .  +                    .+*DKLLLLLLLLLLLJ98qee000e00qyt   X",
"        &LLKLLLLLLLLLLK .. @                 .+   &GLLLLLLLLLLHLJq90qeerrtwrtya    ",
"      .+-DLHLLLLLLLLLLm& .. .   ...  ... .    .  +-VLLLLLLLLLLLLLiiiaiyyyyyyywi$++ ",
"      .X$zljlkkkkkklllxzzxxlxxxxzzzzzzzzxzzzxxxxxzkzjkjklkllkkklk&&%&&&*&&&&**- .  ",
"         e824333333323sDJLLHLLLLLLLLLLLLLLLLLLLKLLCs2333322334488 X .         .    ",
"        oqe808q080qqq4iLLLKLLLLLLLLLLLLLLLLLLLLLLKD9396q0q0068604              .   ",
"       XXrirrerrrreqe3yLLLGLKLLLLLLLLLLLLLLLLKKKLKDwwwwwwtwtryysqO                 ",
"   XX  XXrrirrq08qqqe6fLKLHLLLLLLLLLLLLLLLLLLLLLLGZe9qqqqqq0qe0y8  .              .",
" X     XXp0000terqqwe3sLKLLLLLLLLLLLLLLLLLLLLKKLLLCr4wrqeeeqwe0i8             .    ",
"     X ootrr00yteqrrq5sLLLGLLLLLLLLLLLLLLLLLLLLLLLCr9qeeqeeet0ty8X   X             ",
"X X     Xrrtr0000000q4aLLLGLLLLLLLLLLLLLLLLLLLLLLJZw6qq9800000tq8                  ",
"    X XXXrr0eeeeqeqqq5fLLLJLLLLLLLLLLLLLLLLLLLLLLLAy6qqqereeqqyqq X  X             ",
"  X   +  ir8ee0eq0qqq5sLJLLLKLLLLLLLLLLLLLLLKLLGLLAy6qqq00e0qwyqe o                ",
"      +  pi0e0e09wwq94sLLLLLGLLLLLLLLLLLLLLLLLLKLLZw4qqqr0e00wy0e o  X             ",
"      +  iy0eeeewwwqw4aGLLKLKLLLLLLLLLLLLLLLLLLLGLZy6qqqee0wwqyqq X                ",
"       .Xyyrt0t07wwww6fLLLKLLLLLLLLLLLLLLLLLLLLLLLZy9www0e0wwwyu0                  ",
"     .  OpsdapssaaauawfLKLLLGLLJLLKLLLKLLKLLKLLLLGAayuausaaapupaqoX                ",
"     + .O%&$$$$$$$$$$&=khhggggggggggggghggggghgggkf*&$$$#$$$$%+&%  +               ",
"     .   .     . ...   y6433344345555555444346443q3   .......+ +@  .               ",
"       . .            .s7w6q9q99898e8800qq9qqq9q0i5X               .               ",
"                       pqw0wwweqqqe0r0e0qqqqqqqeqr3                .               ",
"                      Xawrqeewqetrrereereeeeqq8rrp8                                ",
"      .   .           Xsqq8qqeqqq000e00e0eer9q8t0i3X                               ",
"                    X Xpeeqrrrqteerrreeeeerrrrer0i4X                               ",
"      . .             Xser0eqqqq0r000e00ee00008eei5                                ",
"                       aey0pew0qe0qqqqqeeeq0w00t0p5 X                              ",
"                       aqr6000ww0reeeqtqqeeqeq0qwu5 X                              ",
"                       seqqyye0qe0e0e0qqwqqqeqeuqy3                                ",
"                       attt50etteeeeeqtqeeerw00try4X                               ",
"                      +siry0r080000000000000q0qipp4+                               ",
"                     +&rriarsddsdsdsddsdssddsiirpy3$.                              ",
"                       =*&&&&$#$$$$$$$$$$$$#$&*=*=*X                               ",
"                     + $   X XXXXXXXXXXXXXOXXX   X@ .                              ",
"                       X XX X                X XX X                                ",
"                        X XXX  X XX XX X XX X X X X                                ",
"                         X   X X       X X   XX X                                  ",
"                                                   X                               "
};
