/* XPM */
static char *num71721587797[] = {
/* columns rows colors chars-per-pixel */
"83 124 66 1 ",
"  c #010101",
". c #060608",
"X c #07080A",
"o c #0A0A0B",
"O c #0F0F11",
"+ c #131415",
"@ c #161817",
"# c #161719",
"$ c #171819",
"% c #1A1B1C",
"& c #1D1E20",
"* c #242424",
"= c #272928",
"- c #2C2C2C",
"; c #333333",
": c #3D3D3D",
"> c #424242",
", c #454648",
"< c #47484A",
"1 c #4A4B4C",
"2 c #4E4F51",
"3 c #4F5052",
"4 c #535354",
"5 c #56575A",
"6 c #58575C",
"7 c #56585A",
"8 c #5B5B5D",
"9 c #5D5E60",
"0 c #5F6062",
"q c #636366",
"w c #666867",
"e c #646569",
"r c #68676C",
"t c #67686A",
"y c #6A6B6C",
"u c #6E706F",
"i c #6D6E71",
"p c #6F7072",
"a c #727274",
"s c #767678",
"d c #7A7A7B",
"f c #828383",
"g c #8A8B8D",
"h c #8D8E90",
"j c #949495",
"k c #969799",
"l c gray60",
"z c #A4A4A4",
"x c gray71",
"c c #BEBEBE",
"v c #C5C5C5",
"b c gray81",
"n c #D1D1D1",
"m c #D6D7D9",
"M c #D7D8DA",
"N c #D9D9DA",
"B c #DEDFE1",
"V c #DFE0E2",
"C c #E3E3E4",
"Z c #E5E6E8",
"A c #EDEDEE",
"S c #EEF2F3",
"D c #F3F3F4",
"F c #F6F7F9",
"G c #F7F8FA",
"H c #FEFEFE",
/* pixels */
"                                                                           o       ",
"                                                                  . .   o  o       ",
"                                                                                   ",
"                                                                .    .  ..   o     ",
"    .             .  .      .    .        . .       .        ..              O o   ",
"    .  O                                                        ....o.o.    .+ .   ",
"    . o-ZZCZCCCCVCCCZCCCZCCVZCCCZCVCCCZZVCCCCCCCZCCVZCCCACCCZZCB3444444488842>Oo   ",
" .    +:HHHHHHHGHHHHHHGHHHHHHHHHHHHHHHHHHHHHHHHHHHHHHHHHHHHHHHGFwyuuuaiiuasau8O    ",
"  ..   :HHHHHHHHHHHHHHHHHGHHHGHHHHHGHHHHHGHHHHHHHGHHHGHHHHHHGHHA69rqqqqq88qqi9.    ",
" .     :HHHHGHGHHHGHGHHHHHHHHHHHHHHHHHGHHHHHHHGHHHHHHHHHHHHHGHHD690rqqqqrqrei9 .   ",
"   .   :HHHHHHHHHHHHHHHHHHHHHHHHHHHHHHHHHHHHHHHHHHHHHHHHHHHHHHHA69eerqqqyqrqr5     ",
"       :HHHHHHHHHHHHHHHHHHHHHHHHHHHHHHHHHHHHHHHHHHHHHHHHHHHHHHHD66eeqrr0wqe0r4    .",
"       :HHHHHHHHHHHHHHHHHHHHHHHHHHHHHHHHHHHHHHHHHHHHHHHHHHHHGHHD60eeqqrqqqr0i6.. . ",
"       :HHHHHHHHHHHHHHHHHHHHHHHHHHHHHHHHHHHHHHHHHHHHHHHHHHHHHHHS69eeqrqqeqrrr9. . .",
"       :HHHHHHHHHHHHHHHHHHHHHHHHHHHHHHHHHHHHHHHHHHHHHHHHHHHHHHHS69eeqrqqr0rqi6.   .",
"       :HHHHHHHHHHHHHHHHHHHHHHHHHHHHHHHHHHHHHHHHGGHHHHHHHHHHHHGD66eerqr0r0rqr9.... ",
"  o .  :HHHHHHHHHHHHHHHHHHHHHHHHHHHHHHHHHHHHHHHHHDHHHHHHHHHHGHHS79eeeeeee9eei6     ",
"  .    :HHHHHHHHHHHHHHHHHHHHHHHHHHHHHHHHHHHHHHHHHHHHDHHHHHHHHHHS79eeeeeeeeeer6     ",
"      .>HHHHHHHHHHHHHHHHHHHHHHHHHHHHHHHHHHHHHHHHHHDHHHHHHHHHGHHS77eeeee9e9eei9.    ",
"    . o;HHHHHHHHHHHHHHHHHHHHHHHHHHHHHHHHHHHHHHHHAAHDAGHHHHHHHHHS77eeeeeeeeeer9  .  ",
" .     @-====-==********************************=0GHHHAHHHHHHHHS79eeeee9eeeee7   . ",
" .   .  .                                       .;GDHHDHHHHHGHGS79eeeeeeeeeei7 X   ",
"    . .                                         o:HHHHDGHHHHHHGS77eeeee9eeeei7&X   ",
"                                                 ;AHGHHGHHHHGHHS77eeeeeeeeeei7#O. .",
"                                                .:HGGHGHHHHHHHGS79eeeeeer9eer9.   .",
"                                                 :GGGHGHHHHHHHHS79eeeee9eeeer9  .  ",
"                                                 :HHHHGHHHHHHHGS799eeeeeeeeei9   . ",
"                                                 :GHHHGHHHHHGHHS77ee9eeeeeeei3 .   ",
"                                                 :HHHHGHHHHHHHHS79eeeeeeeeeei6     ",
"                                                 :HHHHGHHHHGGHGS79ee9eeeeeeei3  . .",
"                                                 :HHHHGHHHHHHHGS79eeeee9eeeei9     ",
"                                                 :HHHHGHHHHHHHHS77eeeeeee9eei9  .  ",
"                                                 :HHHHGHHHHHHHHD69eeeee9r0rrr9   . ",
"                                                 :HHHHGHHHHHHHHS69eeeeeer0r0i6.    ",
"                                                 :HHHHGHHHHHHHHS69ee9eeer0r0i6     ",
"                                                 :HHHHGHHHHHHHHS66eeeeeer0rei9  . .",
"                                                 :HHHHGHHHHHGHHS66rreeeer0rer6.    ",
"                                                 :HHHHGHHHHHHHHS69eeeeeer0eer6   . ",
"                                                 :HHHHGHHHHHHHHA690eeee0r0rer6X    ",
"                                                 :HHHHGHHHHHHHHD66eeeer0r0rei6..   ",
"                                    .  .         >DHHHGHHHHHHHHD99eeeeeer0rqp5     ",
"                                                 :HHHGHHHGHHGHHS699eeee0yqwqi8 .   ",
"                                                .;HGHGHHHHHHHHHS699ee0eeq8qqi4     ",
"                                .     .         o-HDHHHHHHHHHHHD99ereeeerrqwa5     ",
"                                  ..  ..        .-HGHGHHHGHHHHHS699eqrrqrr00y4o.   ",
"                                  ..   .        .;HGHHGGHGHHHHHD999eq00q8q0ru4.    ",
"                                 . ... .        .:DHHHGGHGHHHHHD99errrwrqrrsd4.    ",
"                                 o. oo          .>AHHGHGGGGHGHHAqriiiiiiaswry<     ",
"                                 o+:nvbnbnnbnnbbvxzgffllljhjjllgXXOoOXXXOOOO@@o.   ",
"                                   >DHHHHHHHHHHHHvw<444>44244481 ... . .    o      ",
"                                 . :HHHDHHHHHGHHHnw888www08wqww8  .                ",
"                                   :HHHHHHHHHHHHHN80w0w0wwqwwry8     .             ",
"                                   >HHHHHHHHHHHHHN28wuwwqqqqqwr8     .             ",
"                                   >GHHGHHHHHHHHHC80088wqqqqqrr8                   ",
"                                   >GHHHHHHHHHHHHn88www0qwqqqwy8 ..   .            ",
"                                .  ,GHHGHHHHHHHHHnw80wwwqwqqqry6     .             ",
"                                   >HHHHHHHHHHHHDN800ww0qw0qqry8  . .              ",
"                                   :GHHHHHHHHHHHHN80wwwqqwqqqry8 .     .           ",
"                                   >HHHHHHHHHHHHHn880wqqqw0qqry8    . .            ",
"                                   :HHHHHHHHHHHHHN880wqqqqqqqrr8 . .               ",
"                                   :HHHHHHHHHHHHHN88qw0qqqqqqwy8  .                ",
"                                   >HHHHHHHHHHHHHn80qwwqqw0qqrr8 .  .              ",
"                                   :HHHHHHHHHHHHHN88wwqqqwqqwwr8                   ",
"                                   >HHHHHHHHHHHHHN80qqqqqeqqqrr8  . .              ",
"                                   :HHHHHHHHHHHHHN89qwqq0r00rry7                   ",
"                                   :HHHHHHHHHHHHHM89qq0eee0rerr7  . .              ",
"                                   :HHHHHHHHHHHHHm89eee0er0e0ry9                   ",
"                                   :GHHHHHHHHHHHHM79qe9e0t0q0iy7. .   .            ",
"                                   >HHHHHHHHHHHHHm89qqqqqe0qqwy7       .           ",
"                                   :HHHHHHHHHHHHHM89eeqqqteeeyy8                   ",
"                                   :GHHHHHHHHHHHHN89qeqqqtqqety7.                  ",
"                                   :HHHHHHHHHHHHHM89qe9qqq0qqwy7                   ",
"                   .               :HGHGHHHHHHHHHN7qeeqq0eq0eye9    .              ",
"                 .               . :HHHHHHHHHHHHHM790eqqqqq0qwe8. .                ",
"                     .           o :HHDHHHHHHHHHHMqeetrrtyyyuuwq .                 ",
"                  o.  +         +  ;AHHDHHHHHHHHHmiiiiprpppyuuuw    .              ",
"                O    -vvcvccvcccxxcxzfgjjjjjjjjjjp&%%$&&$$##$$@@  .    .           ",
"                  .o.-HHHHHHHHHHDHHAw11q44444444e,    X. .       .  .              ",
"                  .  &DDHHHHHHHHGHDA4080qq0wq0qqe,.   X . ..X..   .                ",
"                . . o:GHHGGHHGHHHGGC8ww0qqqwwqwqi,.   X               .            ",
"                . .. =GHHHHHHHHHHDGD1qq9qqqqqqqqi2. . X .                          ",
"                  .o -GGHHHHHHHHHGHA39q9qqwqeqqqi2 .. X                            ",
"                   . -GGHHHHHHHHHGHZ80qqrqqqqwqqi2                                 ",
"                   . -HHHHHHHHHHHHHN08qqqqqqqqqqi1  . X                            ",
"                   . -HHHHHHHHHHHGHNq8qqqqqqqqqqi1    X                            ",
"                   . -HHHHHHHHHHHHHN08qqqqqweqwqi1    X                            ",
"                   . -GHHHHHHHHHHGHB88qqwqqqqqrqi1  .                              ",
"                     -HHHHHHHHHHHGHC98rqqqqqqqqqi2    .                            ",
"                   . -HHHHHHHHHHHHHC89qqqqqqqqqqi1    X                            ",
"                     =HHHHHHHHHHHHHC89qqqeqqqeqqi1    X                            ",
"                     -GHHHHHHHHHHHHV98qqqwqqqwqqi1    .                            ",
"                     -HHHHHHHHHHHHHC80qqqqeqqqeqi1  . .                            ",
"                     -GHHHHHHHHHHHHV08qqqqqqeqqqi<    X                            ",
"                     -HHHHHHHHHHHHHC98qqqeqqqqqqi2  . .                            ",
"                     -HHHHHHHHHHHHHC99qqqqeqqqqei1    .                            ",
"                     =HHHHHHHHHHHHHB99qweqqqqeqei<  . X                            ",
"                   . -HHHHHHHHHHHHHV08ee0eqqqq0qr2 X  .                            ",
"                     -GHHHHHHHHHHHHB88qqeeeewqeei1    ..                           ",
"                   . -HHHHHHHHHHHHHV700q00q0q0q0p2    .                            ",
"                .  . -HHHHHHGHHHHHHV0eteqqqqqqqqi2XX.                              ",
"                     -HGHHHHHHHHFGFV7000eeweeeewy<   X                             ",
"                .    -GGHHHHHHHHHHHA9e0eqqqqqqqqp<.    .                           ",
"                o  ..;HHHHHHHHHHDGDZ7000weteewees<.. X                             ",
"                .    -HGHHGHGHGGHHHD0spsaaaaaaaar>. .o                             ",
"                     %zzggggggggfhgd+&O&++++++++=@.    o                           ",
"                  ..  y8555555559004 . ...... ..o  .o  o                           ",
"                   ..oa8q8q0q00099e2.XXX           ..                              ",
"                .    odyqwqqqqqqeei1.           . ..                               ",
"                     .srwqwewqrwrrp2O X.                                           ",
"                   . odyqqqqqqqq00i<                                               ",
"                .    .seeqqqqqrqtti2X                                              ",
"                    .oswqqqqqqqqeet2                                               ",
"                     oswqqqqqqqqe0a<X o                                            ",
"                     osqeerqwqqwtqu1. .                                            ",
"                   o ofwqqqqqqqqq0t2 .X.                                           ",
"                      sqqeeeqerqetr3                                               ",
"                   . ofa00q000q90rr3.  X                                           ",
"                   ..@ayssssssssasp5O.                                             ",
"                 .    ;*#+#+##+#&&*&   .                                           ",
"                      + .. ...... X  .X                                            ",
"                   .oo.            ....X                            .              ",
"                    .o .   . . .. . .                                              ",
"                o     ... .     .. ..                                              ",
"                       .  . .         .                                            "
};
