/* XPM */
static char *num81721587797[] = {
/* columns rows colors chars-per-pixel */
"83 124 78 1 ",
"  c #010102",
". c #060508",
"X c #08070C",
"o c #07080C",
"O c #0A0A0B",
"+ c #0E0E10",
"@ c #131415",
"# c #151618",
"$ c #1A1A1D",
"% c #1D1D21",
"& c #201F24",
"* c #242424",
"= c #26272B",
"- c #2C2C2D",
"; c #353535",
": c #3C3C3D",
"> c #424242",
", c #464649",
"< c #47484B",
"1 c #4B4B4D",
"2 c #4D4E50",
"3 c #514F52",
"4 c #4F5052",
"5 c #525254",
"6 c #565759",
"7 c #57585A",
"8 c #5B5B5C",
"9 c #5E605F",
"0 c #5E5E61",
"q c #605F64",
"w c #5F6063",
"e c #636465",
"r c #656669",
"t c #68676C",
"y c #67686A",
"u c #6B6B6D",
"i c #6E706F",
"p c #6D6D71",
"a c #706F74",
"s c #6F7072",
"d c #717273",
"f c #757678",
"g c #7A7A7B",
"h c #848485",
"j c #858688",
"k c #8B8B8D",
"l c #8E8F91",
"z c #929294",
"x c #969699",
"c c #97989A",
"v c #999A9C",
"b c #A6A6A6",
"n c #A7A7A9",
"m c #AAAAAA",
"M c #AEAEB0",
"N c gray70",
"B c #BBBBBB",
"V c #BEBEC0",
"C c #C3C3C3",
"Z c #CCCCCC",
"A c #CED0CF",
"S c #CFCFD1",
"D c #D1CFD0",
"F c #D2D2D3",
"G c #D6D7D9",
"H c #D6D9DA",
"J c #DBDBDD",
"K c #DEE0DF",
"L c #DEDFE1",
"P c #DFE0E2",
"I c #E2E2E3",
"U c #E6E7EA",
"Y c #ECECEC",
"T c #EFEFF2",
"R c #F5F5F5",
"E c #F6F6F9",
"W c #F7F9F9",
"Q c #FEFEFE",
/* pixels */
"                      .                                          .                 ",
"                                                  .                                ",
"                       ....   ..               .  .              .                 ",
"                     . O                    .  .  O.                               ",
"                      .  ..      .     .     ..O.          .. .  OO                ",
"                      *. ..  ..           .     .O O.         +                    ",
"                    O1UTYKJKIKIIIIIIIIIIIKIKIIYUYV9556658555528:@.O.               ",
"                     1QYQQQQQQQQQQQQQQQQQQQQQQQTQGy8iiiiiiddddf2O                  ",
"                     ,QQQQQQWQQQQQQQQQQQQQWQQQQWYK8ee9e9eeeeeei3 +.X               ",
"                     >WWWWWWQQQQQQQQQQQWQQQQWQQQRD89uueureeeueu1    .  .           ",
"                     >QWWQQWQQQQQQQQQQQQQQQQQQQQRK899eu9eereeei3                   ",
"                     ,QQQQQQQQQQQQQQQQQQQQQQQQQQRK89e99999eeeei3 .                 ",
"                     >QQWQQQQQQQQQQQQQQQQQQQQQQQWK59eeeeeeeee9u3 . . ...           ",
"                     ,QQQQQQQQQQQQQQQQQQQQQQQQQQWK69eeeeteeeueu3 ....      .       ",
"                     ,QQQQQQQQQQQQQQQQQQQQQQQQQQWK59ee9ee9eetrd3 . . . . .         ",
"                     ,QQQQQQQQQQQQQQQQQQQQQQQQQQWJ89eeeeeeeeret1 . . .. . .        ",
"          .         .>QQWWQQQQQQQQQQQQQQQQQQQQQWWJ88eeeeeeeeqrr3               O   ",
"      . ...          >QQQQQWWQQQQQQQQQQQQQQQEQQQWK5eeqeeeeeeqre3     . .. ...O     ",
"      .              >QQQWQRQQQQQQQQQQQQQQQQQQEWWI59re8reqqe8re,  ..           .   ",
"    ..  $+.         O8IQQWQQQQQQQQQQQQQQQQQQWWQQWFi>55655563169>  ..  o   ooOO O. .",
"      O9JKUKGGGJJJFJGx-*=-*O****************=*#$-fJTIILIIPPPUYUB5475544454446; .   ",
"       rQQQRQQQQWQQQQB   .@+                ...  1REQQQQQQQQQQQJwesssiissappf<.    ",
"    .  8QWQQQQQQQQQQWBO$.                   .  O.5QQQWWQQQQQQQQJ1wstyewrreeru>     ",
"       8QQWWQQQQQQWQWB.     .          .    O. . 5TQQQQQQQQQQEQP1wy8weeeewrwy>     ",
"       9QQWQQQQQQQQQQB..O.                  .....5QWQQQQQQQQQEQP4wwyrwerreeed>     ",
"      .9QQWQQQQQQQQQQB. .                   .  ..3QQQQQQQQQQQQQL19errewreeerd>   . ",
"       8QQWQQQQQQQQQQB  . .                 . .. 2QQQQQQQQQQQQQL19weeeereeeed>   . ",
"       8QQWQQQQQQQQQQB  .                        2QQQQQQQQQQQQQH29eeeerwreeed:     ",
"       8QQQQQQQQQQQQQB                           3QQQQQQQQQQQQQJ2wrreereeered:     ",
"       8QQQQQQQQQQQQQB                           2QQQQQQQQQQQWWJ2ereeeeeeeeed>     ",
"       8QQQQQQQQQQQQQB                           5QQQQQQQQQQQWQL2wwrereeeeeed:     ",
"       8WQQQQQQQQQQQQB  .                   .   .6QQQQQQQQQQQQWJ2wwreereereei>     ",
"       8QQQQQQQQQQQQQB                           5QQQQQQQQQQQQQJ2wereerwrerwi>     ",
"       8QQQQQQQQQQQQQB                           1QQQQQQQQQQQQQL2weeeeeerwerd>     ",
"       8QQQQQQQQQQQQQB                           2QQQQQQQQQQWQQJ4werreeeeerwi>     ",
"       8QQQQQQQQQQQQQB                           5QQQQQQQQQQQQQL4weeeererwrri>     ",
"       8QQQQQQQQQQQQQB                           2QQQQQQQQQQQQQJ1werrweeweeei>     ",
"       8QQQQQQQQQQQQQB                           2QQQQQQQQQQQQWL2wreereererei>     ",
"       8QQQQQQQQQQQQQB                           5QQQQQQQQQQQQQL4wereeerwerei:     ",
"       8QQQQQQQQQQQQQB                           2QQQQQQQQQQQWQJ4werwreerweei>     ",
"       8QQWQQQQQQQQQQB                           5QQQQQQQQQQQQQJ20reeeeer9eeu:   . ",
"      .8QQQQQQQQQQQQQB                        .  5QQQQQQQQQQQQQK2wyeeeereerrd>     ",
"       8QQQQQQQQQQQQQV .  .                  .  .6QQQQQQQQQQQQQJ4weeereeeeeed>.  . ",
"       6WQWQQQQQQQQQQC O  ..                  . .6QQQQQQQQQQQWQJ5wyeeeweere9d>   . ",
"       8WQQQQQQQQQQQQV .   .                 +X. 5QEQQQQQQQQWQQH5eyeererereei>   . ",
"       6WQQQQQQQQQQQQB. .                   X .  3QQQQQQQQQQQQQL40eweerreeerf,.    ",
"      .8RQQQQQQQQQQQQN+ .                   X.  X2EQQQQQQQQQWQQL5eyrrryyyyryf>.    ",
"     O+9WQQQQQQQQQQQQm@ O  .                o. +X<TEQEQEQQQWQQWP7yduiiussuduu:  .. ",
"    . OO,>>::>::::::;uDGVVJZDDDDDDAADFADFAAAVFCFVVxxxxxlxxxzzclaooo+o+++++++*@.    ",
"    . O +.O       .  ,YQQWQRWQQQQQQQQQQQQQQQQQWQEG0,544764464qw2 . oo .  .  O     .",
"      .   .         O>QWQWWQQQWQQWQQQQQQWQWWWWWREU60r0ww00qwwww2 . .            .  ",
"        . .         .:QRQWWQQQQQQQQQQQQQQQWQQQQQEL<qwtprrqttrrr2 .      .    .     ",
"    .                >QQQQQQQWQQQQQQQQQQQWQQQWQWQL7rwewryywwwwt2 ..                ",
"                     1EWRQQQQQQQQQQQQQQQQQQQQQWQQG70rewrwwyyrts2     .             ",
"      .              ,QQQQQWQQQQQQQQQQQQQQQQWQQQQL70rrrwyywywwy<     .   .         ",
"                     >QWWQQQQQWQQQQQQQQQQQQQQQQREL4wwrwrywwyywi1. o                ",
"      .              1QQQQQQQQQQQQQQQQQQQQQQQQQWWJ89eeeewyyey9i1. .            .   ",
"                     ,WQQQQQQQQQQQQQQQQQQQQQQQQQWF899e9eww9e9yi1.        .         ",
"     ..  .   .       ,RQQQQQQQQQQQQQQQQQQQWQQWWQWK89yeeeyeye99i1  .         ..     ",
"  .       +          ,QRTREQQQQQQQQQQQQQQQQQQWEWWK89999ey99e9yi1..   oo   .    O   ",
"     .. O ..         :WWQQWQQQQQQQQQQQQQQQQQQWWQWI59eeee9eeweee1..             O   ",
"    ..  *.          O8YWQRYWQWWQQQQQQQQQQQQWWWWQYD91,111111,1561 .o.       .@+ .   ",
"      .1CCZDZZCZZCCZVl:-::;;;;;;;;;;;;;;;;;;;---:gFIKJJJKKKKUKKC<<1,2221<221,*     ",
"       eQQQQWQQQQQQQQB..                    .  + 3WWQQQQQQQQRRWH7wstttttpptpf,O  O.",
"       eQQWEWWWQWWWWWB.  +O  . . . . . .. . OO.. 5WQQQQWQQQQQQQH2rrerrweeered>     ",
"       8QQWQQQQQQQQQQV. .O.                 ...  5QQQQQQQQQWQQQH<weweeerreeed>.    ",
"       9QQWQQQQQQQQQQB.  .                  .   .5QQQQQQQQQQQQQH1wreeeweeeeed:     ",
"       8QQQQQQQQQQQQQB                           5QQQQQQQQQQQQQH2ereeeerereei>.  . ",
"       8QQQQQQQQQQQQQB                           2QQQQQQQQQQQQQJ1wreeeeereeed>     ",
"       8QQQQQQQQQQQQQB                           2QQQQQQQQQQQWQH4weerereeeeei>.    ",
"       8QQQQQQQQQQQQWB                           2QQQQQQQQQQQQQL4wrreeeweeeei:     ",
"       8QQQQQQQQQQQQQB                           5QQQQQQQQQQWQWH1wwrwerreeeed>     ",
"       8QQQQQQQQQQQQQB                           2QQQQQQQQQQQQQL1werwrrerwred:     ",
"       8QQQQQQQQQQQQQB                           5QQQQQQQQQQQQQJ4weerewrwrwrd:     ",
"       8QQQQQQQQQQQQQB                           2QQQQQQQQQQQQQJ4wereeeererei>     ",
"       8QQQQQQQQQQQQQB                           5QQQQQQQQQQQWQL4weerwrewewrd>     ",
"       8WQQQQQQQQQQQQB                           2QQQQQQQQQQQQQJ4weeeeeerweei>     ",
"       8QQQQQQQQQQQQQB                           2QQQQQQQQQQQQQH1weyerrereeei>     ",
"       8QQQQQQQQQQQQQB                           5QQQQQQQQQQQQQL4weeeereewrri>     ",
"       8QQQQQQQQQQQQQB                           2QQQQQQQQQQQQQJ2wereeeeeeeei>     ",
"       9QQQQQQQQQQQQWV.                         .2WWQQWQQQQQQQQH1eereeeeeeeei>     ",
"       8QQQQQQQQQQQQQB                           5QQQQWWQQQQQQWL19eeeeeeeered>.    ",
"       8WQQQQQQQQQQQQN ..                        5WQQQQQQQQQQWQH29eeerererred:.  . ",
"       8QWQQQQQQQQQQQB  .  .                   ..5WWWQQWQQQQQQQL2wereryerrrrd:.  . ",
"     . 9QQQQQQQQQQQQWV.  ...                ... .5WWWQWWQQQQQQQH2wwyeryreryed>.  . ",
"    .. 9QQQQQQQQQQQQECO  ...       .  .     OO   5QQQWQQQQQQQQQH19ywreeerered,.    ",
"     . 9QQQQQQQQQQQQQBO...    .             ..   5WQQQQQQQQQQQQJ2wwyeeeeeeeed>.    ",
"      .9QQQQQQQQQQQQQB.OO.  .    .  .           O5WWQQQQQQQQQQQL2wwyeeeeeeeeu:     ",
"       8QQQQQQQQQQQQEMX   O+                . O  3WQQQQQQQQQQQEI1ywyrrrrttrug1+    ",
"     .O8QEEQQQQQQQQQEm%    .   . . .... ...   . O8YWQWQQQWQWQQQI5uiduiiiuppyr;+..  ",
"     ..:MvxxxvvvxvvvbnvmMmmmbbmmmbbmbbbbbbbbmbmmbmbvvvvxvvvxxxbh+$@%$&$$%%%%*#     ",
"       $a736356562523lTQQQQQQQQQQQQQQQQQQQQQQQWQWAq11355333688e, . .               ",
". .. X.#a00qqqqqq00q5lQQQQQQQQQQQQQQQQQQQQQQWQWQQJ68re9ee99998r> ..                ",
" .    X%aqqtttttttre3kQQQQQQQQQQQQQQQQQQQQQQQQWQQJ58trrrrurrurf5.    .             ",
". .  ..%atqtqttqqtqr7zQEQQWQQQQQQQQQQQQQQQQQQQEEQI69eeeeqeqqu8i1  X                ",
" . ..  %pttqrqqqrqqq3lQEQQWQQQQQQQQQQQQQQQQQWQQQWG8qrrrreueud8u3                   ",
"  . . X%p0rr0wtwrwwe4kQQQQQQQQQQQQQQQQQQQQQQWQQQWP7wwwrrrrrrrrd<+                  ",
"  ... .%aqttrwwtyrer5kWEWQQQQQQQQQQQQQQQQQQQWQQQWP7wrwwwwweweei<o .                ",
"    ..X%aqttrwwrwwwr5lQQWQQQQQQQQQQQQQQQQQQQWQEQQH7wyyrrerreeru1.  .               ",
".   ...%att0rwrwrrwr7kQQQQQQQEQQQQQQEQQQQQQQQQQQWG78wwwrewereyy2 .                 ",
"     . %tptrrtrtyyrr6kQWQQWQQQQQQQQQQQQQQQWQWEQQQF77wrrerereeuu3                   ",
"    .  %tpeewwwwwwww5jQQQQQWQQQQQQQQQQQQQQQQQQQQQS07ewrereereru1.  .               ",
".    X *tpyrwrtrwtrt0kWQQQWQQQQQQQQQQQQQQQQQQRQQQGrwtrreerrryyd1+                  ",
"  . .. =agsfsfsfffsswzQQQQWQQQQQQQWQQWQQQQQQQRQWQGptdsfadddddig1+ X                ",
"     +.X&%#@@@@+@@@@%;xlljkjkkklkkkkjkkkkkkkkhllxp%$@@@@@@+@@@@@. ..               ",
"     .  X   ...o...  +r07770777766677770666665880>   oXo.XXX.XXo                   ",
"     .  .  .     .  o%pwwwwwwwwweewwwwwwee0ee9e9p< X               .               ",
"     .               #pwywwwtwyweeerrrtweeere9rep<            .                    ",
"               .    .$fpywyyrrrrrtrtttwyerrreqrrp1                                 ",
"         ..          #swwwwtrwwreqrqwttweeeererep<  .              .               ",
"                     @srytyyrrryttrrtwwrtteeueuep<                                 ",
"    . ..  .          @sypwwwrwrwqqeqwtweeeeee9rep<.               .                ",
"                ..  .%awrwytywwreeeeewreereerqtqa1 .                               ",
"                     %awtwwrrrrretrrrrrrrrrrrqtra1 .                               ",
"                 . ..#prstttwwrreeeeeewrreqetrtqu< .                               ",
"                    .$trr070ryyweeterrererrteqqqa1.                                ",
"                    .%patrrtr00e8e9ewwwweqqettttp<X    .                           ",
"              .  .  .%taappaffggfffffffffggfapaat,+..                              ",
"            . .     ..==%%%%#@@@####@#####@%%%%=-$     .                           ",
"                .  .. o.. .  XX.... .... . . . .X  +.                              ",
"           . .      . .  ..o               ....    .                               ",
"                 . . .......  .       . . . ...     . .  .                         ",
"            .    .  .....  . .  . . .    .  ...   X    .                           ",
"           .   .    .. ..  .  .  .        .    .  o .                              "
};
