/* XPM */
static char *num91721587797[] = {
/* columns rows colors chars-per-pixel */
"83 124 82 1 ",
"  c None",
". c #060807",
"X c #060509",
"o c #090708",
"O c #07080A",
"+ c #0A0A0A",
"@ c #0F0F11",
"# c #141415",
"$ c #161618",
"% c #17181A",
"& c #1C1C1C",
"* c #242424",
"= c #262629",
"- c #28272C",
"; c #27282A",
": c #2A2A2C",
"> c #2E2E32",
", c #353535",
"< c #363639",
"1 c #3C3C3E",
"2 c #3E403F",
"3 c #3D3D40",
"4 c #3F4140",
"5 c #424342",
"6 c #46454A",
"7 c #4B4B4C",
"8 c #4E4E51",
"9 c #514F54",
"0 c #4F5052",
"q c #535355",
"w c #565659",
"e c #57585B",
"r c #5B5B5D",
"t c #5E605F",
"y c #5E5E61",
"u c #615F64",
"i c #5F6063",
"p c #636365",
"a c #666867",
"s c #656669",
"d c #68676C",
"f c #67686A",
"g c #6B6B6C",
"h c #6E706F",
"j c #6D6E70",
"k c #716F74",
"l c #6F7172",
"z c #737374",
"x c #767678",
"c c #777978",
"v c #7A7A7A",
"b c #848484",
"n c #8B8B8C",
"m c #8F9092",
"M c #969696",
"N c #979799",
"B c #9A9A9A",
"V c #A6A6A6",
"C c #AAAAAA",
"Z c #B3B4B5",
"A c #B7B8BA",
"S c #BCBCBC",
"D c #BEBFC1",
"F c #BFC0C2",
"G c #C4C4C4",
"H c #C6C7C9",
"J c #C7C8C9",
"K c #CACACB",
"L c #CFCED3",
"P c #D1D1D1",
"I c #DCDCDC",
"U c #DDDEE0",
"Y c #DFE0E2",
"T c #E2E3E3",
"R c #E7E8EA",
"E c #EAEBEB",
"W c #EEEEF2",
"Q c #F4F4F4",
"! c #F7F7F9",
"~ c #F9F7F8",
"^ c #F7F8FA",
"/ c #FEFEFE",
/* pixels */
"                  .  .                                     .                       ",
"                                                  +                                ",
"                                          .                  .                     ",
"                 ++.                            .    o   .   .                     ",
"                .o         .   . .    .        .     oo                            ",
"                ++ o#+                       o+  +$+oooo+ooo+X                     ",
"             .    +zITTTTTTTTTTTTTTTTTTTTTTTTTRAtwr6qqwqwqqqq<o                    ",
"                + +b//~//////////////////~/////Swwhazgzgzzghh7                     ",
"              ..   hQQ/////////////////~///////J7aayjiiitppuz,oo                   ",
"                . oc/~//~///~//////////////~//~G6pprfiispaaaz1                     ",
"                  oz///////////////////////////G7psyfisspaapk1   X     X           ",
"                   z/~/////////////////////////G7afidiiirppuk1    X                ",
"                   x///////////////////////////Gqsppdsssisdik1  X     X   X        ",
"                   z///////////////////////////G8pipiuisusssz1 X   XX        X     ",
"                   z///////////////////////////S9iydususisisk3X X        XX        ",
"                   z///////////////////////////G9didusssusdik3 X X  X X            ",
"               .   c///////////////////////////Gwiffifiifiifx4 X                   ",
".                . g///~///////////////////////G8iiiiiiifffil<XX   X       .       ",
"   .           o+. z/Q/////////////////////////G7iiiieyitiiij< XX  X    X    .     ",
"   + #.           +v~/////////////////////////~Fi07yq00wwqqwy>XXX XX oo   +o XX    ",
" .oo+qIIIIIIIYTTTQPb<&*******************;****:xYWYPYRYYTTTYWD68999999999qw<+X     ",
" .  #b///~~//~QQQ/~no                         .r////^/^/////^Luddkkkkxxkkkk3X X    ",
".   +v///////////WQMo+                        @p^WWW///////^/H8yuuuduuuyyuj3XXX    ",
" .o+ g////////~E/~/V    .               . .   .p^//////^//^/^G9yuddduddysjk3X      ",
" . o c///~///////Q/N..                         a!QQQ~Q~//////Jqisdpyysudusd3 XX    ",
"   o c////////~/~Q/M .                       . f/////////////Kqissduysddssj3XX     ",
"     x///////////~/M                           p^~///////////Jqypsssuusuudj3       ",
"   . v///////////~/M                           a///////~/////J0yssssududddj3       ",
"     c///////////~/N                           a/////////////J0iaiasppppudj3       ",
"     c/////////////N                           p///~/////////J0iaaaiappppdj4       ",
"   . c/////////////N                           a/////////////J0iatpaaptapsj4       ",
"     x///////////~/N                           a/~///////////J0patptappapsj4       ",
"     x/////////////N                           p/////////////H0pfpaaippsisl2       ",
"     x///////////~/M                           p/////////////J8ispisisppisl1X      ",
"     x///////////~/M                           p/////////////H0psppsppisisj1       ",
"     z/////////////M                           a/////////////H0isppppapsisl1       ",
"     x/////////////M                           p/////////////H0ifpasppiapsg4       ",
"     x///////////~/M                           p///////~/////J0psppppppspsl1       ",
"     x///////////~/M                           p/////////////H0ifppsispspsl1X      ",
"     x/////////////M                           p/////////////H0isipsppipisl1       ",
" .. oz///////////~/M                           p/////////////H0pfpapppasisj3       ",
"    .z/////////////M                           a///~///~/////J8isppsppipisj3X      ",
"     v//////////~^/M                           a/////////////H0pspispppsifj3       ",
".  . v////////~/Q//M.                          a~Q////~//////H0isiapispspfj3       ",
".  + c///////////Q~Mo                          a/~///////////H0isapspsisisl1       ",
"   o.x////////~///~M+                          p//~Q~////////J0psppspppppsl3X      ",
" o  ox////////~//~QM+                         .r~~/Q~////////H0ispppiapaisg3       ",
" .  +h///////////~Qn+                         .rEQ///~///////H0isppspppsisl1       ",
"    +;15221121,1156bIPPPPPPKPPKPPPKPPPKPPKPPPKKY//~^~//~/////H0pspspppisisl2       ",
"               o  +hQ~////////////////////////Q~/QQ//////////J8isppaispppsl1X      ",
" ..            o   z///////////////////////~/////~///////////H0psppppsiaisj1       ",
"  .             +  z//////////////////////////~//////////////H0isisapppsisj3       ",
"                   h///////////////////////////////////~/////H0ifpaspppppsj1       ",
".                ..x/~/////////////////////////////////~/////J0psppppsispsl1       ",
"                   z///////////////////////////~/////~///////H0ispiapppsifh1X      ",
"               o.  z/////////////////////////////////////////H0isissppiapsl1       ",
"                   h////////////////////////////~////////////H0pfpapispsisg3       ",
"                  oz////////////////////////////~/~~///~/////J8isppsppiaisj1       ",
"                   h//////////////////////////~~/////////////H0pspiapppsifj3       ",
"                +++v//////////////////////////////~////~/////H0isppsppispfj3X      ",
"              o..  cQ//////////////////////////Q/QQ//Q///////H0isappppppisl3X      ",
"              ++..$bQ//////////////////////~//Q//QW//////////J0psppspppapsl1       ",
"                   &2,,,,,,,,,,,,,,,,,,,,,<,,,,vE~///~~//////H0ifpppispsisj1       ",
"                o#..o                          gQ/~Q~////////H0isissppispsj1       ",
"              ..    . .. o. .. .. .. ..... o. .a/////~///////J0psppppppsisl1       ",
"                    .                          a/////////////H0isppspppspsl1       ",
"                                               p/~///////////H0ispppppppisl1X      ",
"                                               p~//////~/////J0psppapppsisj3       ",
"                                               p/////////////H8isppapppspsl1       ",
"                                               p///////~/////H0psipsppppifj3X      ",
"                                               p/~///////////J0isapspsppisj3       ",
"                                               a///////~/////H0ispppppisidj3       ",
"                  o                            a/////////////J0psppspsisifl2       ",
"                .                              p/////////////H0isppsippsisj1X      ",
"   .  .            ..                          p/////////////J8isppapaisisj1       ",
"   + @            ++ ..                        p/////////////H0isppppppppsl1       ",
"  .++7JGGGGGGGGJGGSg++                         p/////////////J0pspasippsisj1       ",
" .  +v////~///~////M                           a///////~/////H0ispisispppsj1       ",
" .  +v//////////QQQN++                         a/////////////H0ispappaispsl4X      ",
" + . z/////////~/~/No                          p/////////////J0pfppspppsish1       ",
"+.  ox/////////Q///N+                          p//~//////////J9psisdidssisg3 ..    ",
"o   .x///////////Q/N                           p/////~/~/////Jqudssfffisifl1       ",
".   oz////////~//Q/N .                         a/~//~~///////Jqtfudiifaipgl3       ",
"    oc////////~//~/N .                         p/~/~/////////J9tssidifssisg3 X     ",
"    ox/////////Q///M.                          a^~~~~//^/////J0tsusspassish2 .     ",
"    oz/////////Q//~N+                          p/^/////^/////Jqtfiisaaippgh2       ",
"  . .z/////////~/~/N.           o    .         p^~/////~/////Jqtffsiaiiaifh2       ",
"o    x//////////~Q/M o .   .               . . p~Q~~/////////J7tfiiiiaaataf2.o     ",
".   +v/^//////Q/~//M                           a//~//////////K0tfjaafptgpgh,       ",
"  XX@j//~~~//~//~/QN#...oo  o .o...  . .   .. #eQW/~/Q//^/^Q/Prpllfgghgxhhx5@+     ",
"XXXO 8VBBBMBNNVMnMBCNVCVCCVCVCVCCVVCVCVCCCCCVVCBCNBNBNNNmBBBVh##&&&&*&&&%&*+       ",
"   X ,peqq9qww7qq0qZQ//////////////////////////Sre9urwqw8wywp> .             .     ",
"X  X *kpuutuuurtat7A//~////////////////////////S6iyiypppyiiil,                     ",
" XXXX=zsaaaapphata7Z///////////////////////////Gwfiiddddifdic1.                    ",
" X XX>jdutuuptgtra8Z~/////////////////////////^F0iijdiiiifiil1         o           ",
"X XX -xspppaaptata7Z///////////////////////////L0iykiiddifdsl1            .        ",
" XX X=kdusddspspfi0Z///////////////////~///////Gwyssdsufiifsz2                     ",
" XX X-kdsuuuuuapff0Z////////////////~////////^^D9yiisisfissil1                     ",
"X XXX-jdyuuspupuii8Z^//////////////////////////Hefifsusiiiiil1                     ",
"XXX X>kjsssspsasfiqA///////////////////////////G0digusisfiish2                     ",
"  X X>zdauuasptryq0Z^^/////////////////////////H7pygppapffagl2                     ",
"  X .:jsuauuuagjgiyA///////////////////////////Gqspsapppfiiig2 .                   ",
"X XX :zjgaaapauaiiwZ^^///////////////////////~~Gesssaaapjiifh2.                    ",
"    X:vxhkkhhhzxlliF/////^/^///^//~////////////Jszxgzlchvllvc7                     ",
"  .  ++###@###$$$$%6mmnnnnnnnnnnnnnmnnnnnbnnnnnw##@$$#@#@@#%#.                     ",
"     ...oooo.      =pyeewwwweewwwwweqwqewwwqqrg5   . oo+o o+.                      ",
"   o           .XO.:fpyiippyupputiiiiiiitupptta, .                                 ",
"                   -ffpspppppppapafifisigpppaah1     o                             ",
"              X. X :lsspssssssssaasafsssuaaapah1                                   ",
"                   -spppppppippppppisiisuuuupah1  ..                               ",
"           X    XX >gssspsppssssssssffssgpudapg1                                   ",
"                   :gspippppisisisisiiipsuuapah1     .                             ",
"                   >jipppppppsppspppppsssppppsh1   .                               ",
"                XX :fssssssppapspspasspapippssa1     .                             ",
"               X  X:gfippppppppppspppppppsyuspz2+.   .                             ",
"             X X X -fssspspassspssssssssspdsfsh>   . .                             ",
"            X X    :jzpipppypypyippppppppsupupv2.  +                               ",
"                 @@,dlxvxxxxxxxxxxxvxxxxvzxvxvz5+. .                               ",
"               XX  X=*%########$##%#%#$##%####=#     +                             ",
"             XX@XO. @ .XXXXXXXXXXX XX.   X  .    +   +                             ",
"              XX  X                          X +o.                                 ",
"                X X  XX X  X XX  X X XXX XX  X X                                   ",
"                         X X   X                                          o        ",
"                XX   X      X   X X  X    X                                        "
};
